<?xml version="1.0" encoding="UTF-8" standalone="no"?>
<svg
   id="Layer_1"
   data-name="Layer 1"
   viewBox="0 0 512 512"
   version="1.1"
   sodipodi:docname="bus.svg"
   inkscape:version="1.4 (86a8ad7, 2024-10-11)"
   xmlns:inkscape="http://www.inkscape.org/namespaces/inkscape"
   xmlns:sodipodi="http://sodipodi.sourceforge.net/DTD/sodipodi-0.dtd"
   xmlns="http://www.w3.org/2000/svg"
   xmlns:svg="http://www.w3.org/2000/svg">
  <defs
     id="defs1" />
  <sodipodi:namedview
     id="namedview1"
     pagecolor="#ffffff"
     bordercolor="#000000"
     borderopacity="0.25"
     inkscape:showpageshadow="2"
     inkscape:pageopacity="0.0"
     inkscape:pagecheckerboard="0"
     inkscape:deskcolor="#d1d1d1"
     inkscape:zoom="1.4355469"
     inkscape:cx="256"
     inkscape:cy="256"
     inkscape:window-width="2880"
     inkscape:window-height="1514"
     inkscape:window-x="2869"
     inkscape:window-y="-11"
     inkscape:window-maximized="1"
     inkscape:current-layer="Layer_1" />
  <title
     id="title1">bus-glyph</title>
  <path
     d="M38.59,225c-2.31,78.89-.44,161.14,3.08,202,0,31.59,21.18,26.37,21.18,26.37H82.77v34.1C82.77,501,96.69,512,113.86,512S145,501,145,487.51v-34.1H376.35v34.1c0,13.54,14,24.49,31.14,24.49s31.14-11,31.14-24.49v-34.1h6.48s25,3.41,26.58-11.45c0-40.78,2.59-131.21.44-216.55a25.7,25.7,0,0,0,18.17-24.54V150.8a25.83,25.83,0,0,0-23.77-25.63C462.34,84.33,455.68,52.49,445.11,40,401.71-11.44,97.41-15.19,62.91,40c-8.48,13.54-14.42,45.23-18.38,85.28A25.72,25.72,0,0,0,21.7,150.8v50.07A25.75,25.75,0,0,0,38.59,225Zm102,188.1A33.2,33.2,0,1,1,173.77,380,33.2,33.2,0,0,1,140.55,413.13Zm229,0A33.2,33.2,0,1,1,402.82,380,33.22,33.22,0,0,1,369.58,413.13ZM137.18,47.3H370.85V82.69H137.18Zm-40.93,55H411.78V267.83H96.25Z"
     fill="white"
     id="path1" />
</svg>
