<?xml version="1.0" encoding="UTF-8" standalone="no"?>
<!-- Uploaded to: SVG Repo, www.svgrepo.com, Generator: SVG Repo Mixer Tools -->

<svg
   fill="#000000"
   height="800px"
   width="800px"
   version="1.1"
   id="Layer_1"
   viewBox="0 0 512 512"
   xml:space="preserve"
   sodipodi:docname="bus.svg"
   inkscape:version="1.4 (86a8ad7, 2024-10-11)"
   xmlns:inkscape="http://www.inkscape.org/namespaces/inkscape"
   xmlns:sodipodi="http://sodipodi.sourceforge.net/DTD/sodipodi-0.dtd"
   xmlns="http://www.w3.org/2000/svg"
   xmlns:svg="http://www.w3.org/2000/svg"><defs
   id="defs14" /><sodipodi:namedview
   id="namedview14"
   pagecolor="#ffffff"
   bordercolor="#000000"
   borderopacity="0.25"
   inkscape:showpageshadow="2"
   inkscape:pageopacity="0.0"
   inkscape:pagecheckerboard="0"
   inkscape:deskcolor="#d1d1d1"
   inkscape:zoom="1.59375"
   inkscape:cx="400"
   inkscape:cy="400"
   inkscape:window-width="2880"
   inkscape:window-height="1514"
   inkscape:window-x="2869"
   inkscape:window-y="-11"
   inkscape:window-maximized="1"
   inkscape:current-layer="Layer_1" />
<g
   id="g2">
	<g
   id="g1">
		<path
   d="M128.5,312.991c-13.792,0-25.014,11.22-25.014,25.013s11.221,25.014,25.014,25.014c13.792,0,25.014-11.221,25.014-25.014    S142.292,312.991,128.5,312.991z M128.5,342.618c-2.545,0-4.615-2.07-4.615-4.615s2.07-4.614,4.615-4.614    c2.545,0,4.615,2.07,4.615,4.614C133.115,340.548,131.044,342.618,128.5,342.618z"
   id="path1"
   fill="white" />
	</g>
</g>
<g
   id="g4"
   fill="white">
	<g
   id="g3">
		<path
   d="M377.298,312.991c-13.792,0-25.014,11.22-25.014,25.013s11.221,25.014,25.014,25.014s25.013-11.221,25.013-25.014    S391.091,312.991,377.298,312.991z M377.298,342.618c-2.545,0-4.615-2.07-4.615-4.615s2.07-4.614,4.615-4.614    s4.614,2.07,4.614,4.614C381.913,340.548,379.843,342.618,377.298,342.618z"
   id="path2" />
	</g>
</g>
<g
   id="g6">
	<g
   id="g5"
   fill="white">
		<path
   d="M490.812,285.69V147.685c0-16.643-13.681-30.182-30.498-30.182H50.588c-16.802,0-30.47,13.669-30.47,30.471v137.845    C8.762,287.431,0,297.212,0,309.007v17.297c0,12.917,10.509,23.426,23.427,23.426h49.812v0    c5.414,25.541,28.131,44.768,55.261,44.768s49.848-19.227,55.261-44.768h138.276c5.414,25.541,28.131,44.768,55.261,44.768    s49.848-19.227,55.261-44.768h56.014c12.917,0,23.427-10.509,23.427-23.426v-17.297C512,296.845,502.683,286.82,490.812,285.69z     M38.967,329.331H23.427c-1.67,0-3.028-1.359-3.028-3.027v-17.297c0-1.67,1.359-3.028,3.028-3.028h15.541V329.331z M128.5,374.098    c-19.903,0-36.095-16.192-36.095-36.095c0-19.903,16.191-36.095,36.095-36.095s36.095,16.191,36.095,36.095    C164.595,357.907,148.402,374.098,128.5,374.098z M377.298,374.098c-19.903,0-36.095-16.192-36.095-36.095    c0-19.903,16.192-36.095,36.095-36.095c19.903,0,36.095,16.191,36.095,36.095C413.393,357.907,397.201,374.098,377.298,374.098z     M470.415,150.632h-64.962c-5.633,0-10.199,4.566-10.199,10.199v60.649c0,5.633,4.566,10.199,10.199,10.199h64.962v53.903h-6.461    c-5.633,0-10.199,4.566-10.199,10.199v33.551h-20.629c-4.186-27.048-27.625-47.82-55.826-47.82    c-28.202,0-51.642,20.773-55.827,47.82H184.326c-4.186-27.048-27.625-47.82-55.826-47.82c-28.202,0-51.642,20.773-55.826,47.82    H59.365V295.78c0-5.633-4.566-10.199-10.199-10.199h-8.651v-16.678h372.552c5.633,0,10.199-4.566,10.199-10.199    c0-5.633-4.566-10.199-10.199-10.199H40.515V147.974c0-5.555,4.518-10.073,10.073-10.073h409.727    c5.474,0,10.099,4.481,10.099,9.784V150.632z M470.183,171.029v40.25h-54.532v-40.25H470.183z M491.602,326.304    c0,1.67-1.359,3.027-3.028,3.027h-14.422v-23.352h14.422c1.67,0,3.028,1.359,3.028,3.028V326.304z"
   id="path4" />
	</g>
</g>
<g
   id="g8"
   fill="white">
	<g
   id="g7">
		<path
   d="M144.285,150.63h-79.9c-5.633,0-10.199,4.566-10.199,10.199v60.649c0,5.633,4.566,10.199,10.199,10.199h79.9    c5.633,0,10.199-4.566,10.199-10.199V160.83C154.484,155.197,149.918,150.63,144.285,150.63z M134.086,211.279H74.585v-40.25    h59.501V211.279z"
   id="path6" />
	</g>
</g>
<g
   id="g10"
   fill="white">
	<g
   id="g9">
		<path
   d="M258.04,150.63h-79.9c-5.633,0-10.199,4.566-10.199,10.199v60.649c0,5.633,4.566,10.199,10.199,10.199h79.9    c5.633,0,10.199-4.566,10.199-10.199V160.83C268.239,155.197,263.673,150.63,258.04,150.63z M247.841,211.279h-59.501v-40.25    h59.501V211.279z"
   id="path8" />
	</g>
</g>
<g
   id="g12"
   fill="white">
	<g
   id="g11">
		<path
   d="M371.597,150.63h-79.9c-5.633,0-10.199,4.566-10.199,10.199v60.649c0,5.633,4.566,10.199,10.199,10.199h79.9    c5.633,0,10.199-4.566,10.199-10.199V160.83C381.796,155.197,377.23,150.63,371.597,150.63z M361.398,211.279h-59.501v-40.25    h59.501V211.279z"
   id="path10" />
	</g>
</g>
<g
   id="g14"
   fill="white">
	<g
   id="g13">
		<path
   d="M448.817,248.504h-4.036c-5.633,0-10.199,4.566-10.199,10.199c0,5.633,4.566,10.199,10.199,10.199h4.036    c5.633,0,10.199-4.566,10.199-10.199C459.016,253.07,454.45,248.504,448.817,248.504z"
   id="path12" />
	</g>
</g>
</svg>
