<svg width="29" height="27" viewBox="0 0 29 27" fill="none" xmlns="http://www.w3.org/2000/svg">
<path d="M17.492 7.48414V4.49207C17.492 3.69852 17.1768 2.93748 16.6157 2.37636C16.0545 1.81523 15.2935 1.5 14.5 1.5H4.02771C3.23417 1.5 2.47312 1.81523 1.912 2.37636C1.35088 2.93748 1.03564 3.69852 1.03564 4.49207V22.4445C1.03564 23.238 1.35088 23.9991 1.912 24.5602C2.47312 25.1213 3.23417 25.4366 4.02771 25.4366H14.5C15.2935 25.4366 16.0545 25.1213 16.6157 24.5602C17.1768 23.9991 17.492 23.238 17.492 22.4445V19.4524M10.0119 13.4683H27.9643M27.9643 13.4683L23.4762 8.98017M27.9643 13.4683L23.4762 17.9564" stroke="white" stroke-width="1.5" stroke-linecap="round" stroke-linejoin="round"/>
</svg>
