<?xml version="1.0" encoding="UTF-8" standalone="no"?>
<svg
   width="20"
   height="24"
   viewBox="0 0 20 24"
   fill="none"
   version="1.1"
   id="svg2"
   sodipodi:docname="pin_park.svg"
   inkscape:version="1.4 (86a8ad7, 2024-10-11)"
   xmlns:inkscape="http://www.inkscape.org/namespaces/inkscape"
   xmlns:sodipodi="http://sodipodi.sourceforge.net/DTD/sodipodi-0.dtd"
   xmlns="http://www.w3.org/2000/svg"
   xmlns:svg="http://www.w3.org/2000/svg">
  <defs
     id="defs2" />
  <sodipodi:namedview
     id="namedview2"
     pagecolor="#ffffff"
     bordercolor="#000000"
     borderopacity="0.25"
     inkscape:showpageshadow="2"
     inkscape:pageopacity="0.0"
     inkscape:pagecheckerboard="0"
     inkscape:deskcolor="#d1d1d1"
     inkscape:zoom="48.625"
     inkscape:cx="9.9948586"
     inkscape:cy="12"
     inkscape:window-width="2560"
     inkscape:window-height="1369"
     inkscape:window-x="-8"
     inkscape:window-y="-8"
     inkscape:window-maximized="1"
     inkscape:current-layer="svg2" />
  <ellipse
     style="fill:#80e5ff;stroke-width:1.01833"
     id="path3"
     cx="9.491003"
     cy="10.673521"
     rx="7.5784063"
     ry="10.077121" />
  <ellipse
     style="fill:#ffffff;stroke-width:1.00157"
     id="path4"
     cx="10.097687"
     cy="8.8123398"
     rx="1.5835476"
     ry="1.6143959" />
  <path
     d="M7.20001 14.4V6H10.4308C11.2 6 11.8539 6.27222 12.3923 6.81667C12.9308 7.36111 13.2 8.02222 13.2 8.8C13.2 9.57778 12.9308 10.2389 12.3923 10.7833C11.8539 11.3278 11.2 11.6 10.4308 11.6H9.04617V14.4H7.20001ZM9.04617 9.73333H10.5231C10.7769 9.73333 10.9942 9.64194 11.175 9.45917C11.3558 9.27639 11.4462 9.05667 11.4462 8.8C11.4462 8.54333 11.3558 8.32361 11.175 8.14083C10.9942 7.95806 10.7769 7.86667 10.5231 7.86667H9.04617V9.73333Z"
     fill="black"
     id="path1" />
  <path
     d="M9.6 20.82C12.04 18.58 13.85 16.545 15.03 14.715C16.21 12.885 16.8 11.26 16.8 9.84C16.8 7.66 16.105 5.875 14.715 4.485C13.325 3.095 11.62 2.4 9.6 2.4C7.58 2.4 5.875 3.095 4.485 4.485C3.095 5.875 2.4 7.66 2.4 9.84C2.4 11.26 2.99 12.885 4.17 14.715C5.35 16.545 7.16 18.58 9.6 20.82ZM9.6 24C6.38 21.26 3.975 18.715 2.385 16.365C0.795 14.015 0 11.84 0 9.84C0 6.84 0.965 4.45 2.895 2.67C4.825 0.89 7.06 0 9.6 0C12.14 0 14.375 0.89 16.305 2.67C18.235 4.45 19.2 6.84 19.2 9.84C19.2 11.84 18.405 14.015 16.815 16.365C15.225 18.715 12.82 21.26 9.6 24Z"
     fill="black"
     id="path2" />
</svg>
