<?xml version="1.0" encoding="UTF-8" standalone="no"?>
<svg
   width="64"
   height="64"
   viewBox="0 0 64 64"
   version="1.1"
   id="svg3"
   xmlns="http://www.w3.org/2000/svg">
  <g transform="translate(0,-32)">
    <!-- Pin con curva superiore sferica -->
    <path
       d="m 31.54008,1.6833332 c -11.010468,0 -19.936219,9.0588408 -19.936219,20.2334908 0,10.894959 10.734889,20.233491 19.936219,38.91056 9.201329,-18.677069 19.936218,-28.015601 19.936218,-38.91056 0,-11.17465 -8.925748,-20.2334908 -19.936218,-20.2334908 z"
       fill="#4F95FF"
       stroke="#1c1c1c"
       stroke-width="2.4361"
       id="path1" />
    <!-- Cerchio bianco centrale -->
    <ellipse
       cx="31.366814"
       cy="21.19755"
       fill="#ffffff"
       id="circle1"
       style="stroke-width:0.788059"
       rx="13.259389"
       ry="13.536025" />
    <!-- Punto esclamativo cartoon -->
    <path
       d="M 25.345207,31.437908 V 12.361463 h 8.04667 c 1.915784,0 3.544402,0.618213 4.88535,1.854661 1.341199,1.236426 2.011675,2.737811 2.011675,4.504153 0,1.766343 -0.670476,3.267751 -2.011675,4.504085 -1.340948,1.236563 -2.969566,1.854729 -4.88535,1.854729 H 29.94329 v 6.358817 z M 29.94329,20.839874 h 3.678471 c 0.63212,0 1.173331,-0.207546 1.623636,-0.622617 0.450303,-0.415095 0.675456,-0.914081 0.675456,-1.49698 0,-0.582898 -0.225153,-1.081883 -0.675456,-1.496978 C 34.795092,16.808228 34.253881,16.60068 33.621761,16.60068 H 29.94329 Z"
       fill="#000000"
       id="path1-5"
       style="stroke-width:10" />
  </g>
</svg>
