<?xml version="1.0" encoding="UTF-8" standalone="no"?>
<svg
   width="128"
   height="128"
   viewBox="0 0 64 128"
   version="1.1"
   id="svg3"
   sodipodi:docname="pin_park.svg"
   inkscape:version="1.4 (86a8ad7, 2024-10-11)"
   xmlns:inkscape="http://www.inkscape.org/namespaces/inkscape"
   xmlns:sodipodi="http://sodipodi.sourceforge.net/DTD/sodipodi-0.dtd"
   xmlns="http://www.w3.org/2000/svg"
   xmlns:svg="http://www.w3.org/2000/svg">
  <defs
     id="defs3" />
  <sodipodi:namedview
     id="namedview3"
     pagecolor="#ffffff"
     bordercolor="#000000"
     borderopacity="0.25"
     inkscape:showpageshadow="2"
     inkscape:pageopacity="0.0"
     inkscape:pagecheckerboard="0"
     inkscape:deskcolor="#d1d1d1"
     inkscape:document-units="mm"
     inkscape:zoom="1.7057225"
     inkscape:cx="-34.882579"
     inkscape:cy="-64.781933"
     inkscape:window-width="1920"
     inkscape:window-height="974"
     inkscape:window-x="-11"
     inkscape:window-y="-11"
     inkscape:window-maximized="1"
     inkscape:current-layer="svg3" />
  <!-- Pin con curva superiore sferica -->
  <path
     d="m 37.592323,1.4461071 c -10.878093,0 -19.696528,8.9499279 -19.696528,19.9902269 0,10.763969 10.605822,19.990229 19.696528,38.442745 9.090704,-18.452516 19.696529,-27.678776 19.696529,-38.442745 0,-11.040299 -8.818433,-19.9902269 -19.696529,-19.9902269 z"
     fill="#4f95ff"
     stroke="#1c1c1c"
     stroke-width="2.34409"
     id="path1"
     sodipodi:nodetypes="sscss" />
  <!-- Cerchio bianco centrale -->
  <ellipse
     cx="37.421135"
     cy="20.725708"
     fill="#ffffff"
     id="circle1"
     style="stroke-width:0.778584"
     rx="13.099973"
     ry="13.373283" />
  <!-- Triangolo di pericolo -->
  <!-- Punto esclamativo cartoon - stanghetta a goccia -->
  <!-- Pallino -->
  <path
     d="M 31.47193,30.842947 V 11.995856 h 7.949927 c 11.892747,0 3.501787,0.61078 4.826616,1.832363 1.325073,1.22156 1.987489,2.704895 1.987489,4.449999 0,1.745109 -0.662416,3.228465 -1.987489,4.449933 -1.324829,1.221698 -2.933869,1.832432 -4.826616,1.832432 h -3.407125 v 6.282364 z m 4.542802,-10.470615 h 3.634245 c 0.62452,0 1.159224,-0.205052 1.604114,-0.615129 0.444888,-0.410105 0.667333,-0.903094 0.667333,-1.478985 0,-0.575889 -0.222448,-1.068875 -0.667333,-1.47898 -0.44489,-0.41008 -0.979594,-0.615132 -1.604114,-0.615132 h -3.634245 z"
     fill="#000000"
     id="path1-5"
     style="stroke-width:9.87977" />
</svg>
