<?xml version="1.0" encoding="UTF-8" standalone="no"?>
<svg
   width="32"
   height="37"
   viewBox="0 0 32 37"
   version="1.1"
   id="svg2"
   sodipodi:docname="pin_park.svg"
   inkscape:version="1.4 (86a8ad7, 2024-10-11)"
   xmlns:inkscape="http://www.inkscape.org/namespaces/inkscape"
   xmlns:sodipodi="http://sodipodi.sourceforge.net/DTD/sodipodi-0.dtd"
   xmlns="http://www.w3.org/2000/svg"
   xmlns:svg="http://www.w3.org/2000/svg">
  <defs
     id="defs2" />
  <sodipodi:namedview
     id="namedview2"
     pagecolor="#ffffff"
     bordercolor="#000000"
     borderopacity="0.25"
     inkscape:showpageshadow="2"
     inkscape:pageopacity="0.0"
     inkscape:pagecheckerboard="0"
     inkscape:deskcolor="#d1d1d1"
     inkscape:zoom="19.864865"
     inkscape:cx="15.982993"
     inkscape:cy="18.5"
     inkscape:window-width="1920"
     inkscape:window-height="974"
     inkscape:window-x="-11"
     inkscape:window-y="-11"
     inkscape:window-maximized="1"
     inkscape:current-layer="svg2" />
  <g
     transform="matrix(0.60614912,0,0,0.60614912,-3.3927844,-40.41812)"
     id="g2">
    <!-- Il disegno originale viene scalato e traslato per far combaciare la punta -->
    <path
       d="m 31.931916,67.814224 c -10.69322,0 -19.361791,8.797825 -19.361791,19.650496 0,10.58104 10.425582,19.6505 19.361791,37.78942 8.936209,-18.13892 19.36179,-27.20838 19.36179,-37.78942 0,-10.852671 -8.668568,-19.650496 -19.36179,-19.650496 z"
       fill="#4f95ff"
       stroke="#1c1c1c"
       stroke-width="2"
       id="path1" />
    <ellipse
       cx="31.763641"
       cy="86.766174"
       fill="#ffffff"
       rx="12.877342"
       ry="13.146008"
       style="stroke-width:1"
       id="ellipse1" />
    <path
       d="m 25.915538,96.711471 v -18.52679 h 7.814819 c 1.860584,0 3.442276,0.6004 4.744587,1.801222 1.302555,1.200801 1.953712,2.658926 1.953712,4.374374 0,1.715449 -0.651157,3.173596 -1.953712,4.374307 -1.302311,1.200934 -2.884003,1.801289 -4.744587,1.801289 h -3.349222 v 6.175598 z m 4.465597,-10.29267 h 3.572482 c 0.613907,0 1.139524,-0.201566 1.576854,-0.604677 0.437328,-0.403135 0.655994,-0.887743 0.655994,-1.453847 0,-0.566103 -0.218666,-1.050711 -0.655994,-1.453845 -0.43733,-0.403112 -0.962947,-0.60468 -1.576854,-0.60468 h -3.572482 z"
       fill="#000000"
       id="path2" />
  </g>
</svg>
