<svg width="128" height="128" viewBox="0 -64 64 128" xmlns="http://www.w3.org/2000/svg">
  <g>
    <path
       d="m 31.931916,3.8142236 c -10.69322,0 -19.361791,8.7978254 -19.361791,19.6504974 0,10.581039 10.425582,19.650498 19.361791,37.789419 8.936209,-18.138921 19.36179,-27.20838 19.36179,-37.789419 0,-10.852672 -8.668568,-19.6504974 -19.36179,-19.6504974 z"
       fill="#4f95ff"
       stroke="#1c1c1c"
       stroke-width="2.4361"/>
    <ellipse
       cx="31.763641"
       cy="22.766172"
       fill="#ffffff"
       rx="12.877342"
       ry="13.146008"
       style="stroke-width:0.971187"/>
    <path
       d="m 25.915538,32.711471 v -18.52679 h 7.814819 c 1.860584,0 3.442276,0.6004 4.744587,1.801222 1.302555,1.200801 1.953712,2.658926 1.953712,4.374374 0,1.715449 -0.651157,3.173596 -1.953712,4.374307 -1.302311,1.200934 -2.884003,1.801289 -4.744587,1.801289 h -3.349222 v 6.175598 z m 4.465597,-10.29267 h 3.572482 c 0.613907,0 1.139524,-0.201566 1.576854,-0.604677 0.437328,-0.403135 0.655994,-0.887743 0.655994,-1.453847 0,-0.566103 -0.218666,-1.050711 -0.655994,-1.453845 -0.43733,-0.403112 -0.962947,-0.60468 -1.576854,-0.60468 h -3.572482 z"
       fill="#000000"
       style="stroke-width:9.71187"/>
  </g>
</svg>
