<?xml version="1.0" encoding="UTF-8" standalone="no"?>
<svg
   width="64"
   height="64"
   viewBox="0 0 128 "
   version="1.1"
   id="svg3"
   sodipodi:docname="pin_park.svg"
   inkscape:version="1.4 (86a8ad7, 2024-10-11)"
   xmlns:inkscape="http://www.inkscape.org/namespaces/inkscape"
   xmlns:sodipodi="http://sodipodi.sourceforge.net/DTD/sodipodi-0.dtd"
   xmlns="http://www.w3.org/2000/svg"
   xmlns:svg="http://www.w3.org/2000/svg">
  <defs
     id="defs3" />
  <sodipodi:namedview
     id="namedview3"
     pagecolor="#ffffff"
     bordercolor="#000000"
     borderopacity="0.25"
     inkscape:showpageshadow="2"
     inkscape:pageopacity="0.0"
     inkscape:pagecheckerboard="0"
     inkscape:deskcolor="#d1d1d1"
     inkscape:document-units="mm"
     inkscape:zoom="27.29156"
     inkscape:cx="20.720692"
     inkscape:cy="16.873349"
     inkscape:window-width="1920"
     inkscape:window-height="974"
     inkscape:window-x="-11"
     inkscape:window-y="-11"
     inkscape:window-maximized="1"
     inkscape:current-layer="svg3" />
  <!-- Pin con curva superiore sferica -->
  <path
     d="m 24.401432,0.70526557 c -4.00212,0 -7.246479,3.29273583 -7.246479,7.35453223 0,3.9601332 3.90195,7.3545332 7.246479,14.1433322 3.344528,-6.788799 7.246479,-10.183199 7.246479,-14.1433322 0,-4.0617964 -3.244358,-7.35453223 -7.246479,-7.35453223 z"
     fill="#4f95ff"
     stroke="#1c1c1c"
     stroke-width="0.862405"
     id="path1"
     sodipodi:nodetypes="sscss" />
  <!-- Cerchio bianco centrale -->
  <ellipse
     cx="24.338451"
     cy="7.7983541"
     fill="#ffffff"
     id="circle1"
     style="stroke-width:0.286446"
     rx="4.8195639"
     ry="4.9201164" />
  <!-- Triangolo di pericolo -->
  <!-- Punto esclamativo cartoon - stanghetta a goccia -->
  <!-- Pallino -->
  <path
     d="M 22.1497,11.520551 V 4.5865856 h 2.924829 c 0.696354,0 1.28833,0.22471 1.775743,0.674138 0.487503,0.44942 0.73121,0.9951482 0.73121,1.6371832 0,0.642037 -0.243707,1.187773 -0.73121,1.637159 -0.487413,0.4494705 -1.079389,0.6741635 -1.775743,0.6741635 h -1.253503 v 2.3113217 z m 1.671326,-3.8522062 h 1.337062 c 0.229765,0 0.426486,-0.07544 0.590164,-0.22631 0.163677,-0.15088 0.245516,-0.332254 0.245516,-0.544128 0,-0.211873 -0.08184,-0.393246 -0.245516,-0.544126 -0.163678,-0.150871 -0.360399,-0.226311 -0.590164,-0.226311 h -1.337062 z"
     fill="#000fff"
     id="path1-5"
     style="stroke-width:3.63483" />
</svg>
