<?xml version="1.0" encoding="UTF-8" standalone="no"?>
<svg
   width="64"
   height="64"
   viewBox="0 0 64 64"
   version="1.1"
   id="svg3"
   sodipodi:docname="pin_park.svg"
   inkscape:version="1.4 (86a8ad7, 2024-10-11)"
   xmlns:inkscape="http://www.inkscape.org/namespaces/inkscape"
   xmlns:sodipodi="http://sodipodi.sourceforge.net/DTD/sodipodi-0.dtd"
   xmlns="http://www.w3.org/2000/svg"
   xmlns:svg="http://www.w3.org/2000/svg">
  <defs
     id="defs3" />
  <sodipodi:namedview
     id="namedview3"
     pagecolor="#ffffff"
     bordercolor="#000000"
     borderopacity="0.25"
     inkscape:showpageshadow="2"
     inkscape:pageopacity="0.0"
     inkscape:pagecheckerboard="0"
     inkscape:deskcolor="#d1d1d1"
     inkscape:document-units="mm"
     inkscape:zoom="9.6490235"
     inkscape:cx="33.733984"
     inkscape:cy="34.044896"
     inkscape:window-width="1920"
     inkscape:window-height="974"
     inkscape:window-x="-11"
     inkscape:window-y="-11"
     inkscape:window-maximized="1"
     inkscape:current-layer="svg3" />
  <!-- Pin con curva superiore sferica -->
  <path
     d="m 32.531564,1.0264914 c -5.293398,0 -9.584545,4.3551318 -9.584545,9.7274606 0,5.237865 5.16091,9.727461 9.584545,18.706657 4.423634,-8.979196 9.584544,-13.468792 9.584544,-18.706657 0,-5.3723288 -4.291146,-9.7274606 -9.584544,-9.7274606 z"
     fill="#4f95ff"
     stroke="#1c1c1c"
     stroke-width="1.2"
     id="path1"
     sodipodi:nodetypes="sscss" />
  <!-- Cerchio bianco centrale -->
  <ellipse
     cx="32.448265"
     cy="10.408154"
     fill="#ffffff"
     id="circle1"
     style="stroke-width:0.378868"
     rx="6.374589"
     ry="6.5075846" />
  <!-- Triangolo di pericolo -->
  <!-- Punto esclamativo cartoon - stanghetta a goccia -->
  <!-- Pallino -->
  <path
     d="M 29.553314,15.331312 V 6.1601132 h 3.86852 c 0.921034,0 1.704009,0.2972124 2.348683,0.8916476 0.644796,0.5944246 0.967134,1.316231 0.967134,2.1654184 0,0.8491878 -0.322338,1.5710058 -0.967134,2.1653858 -0.644674,0.59449 -1.427649,0.89168 -2.348683,0.89168 H 31.76389 v 3.057067 z m 2.210576,-5.095115 h 1.768463 c 0.303899,0 0.564092,-0.09978 0.78058,-0.2993292 0.216488,-0.1995609 0.324733,-0.4394539 0.324733,-0.7196886 0,-0.2802343 -0.108245,-0.5201266 -0.324733,-0.7196878 C 34.096445,8.2979416 33.836252,8.1981609 33.532353,8.1981609 H 31.76389 Z"
     fill="#000000"
     id="path1-5"
     style="stroke-width:4.8076" />
</svg>
