<?xml version="1.0" encoding="UTF-8" standalone="no"?>
<svg
   width="64"
   height="64"
   viewBox="0 0 64 64"
   version="1.1"
   id="svg3"
   sodipodi:docname="pin_park.svg"
   inkscape:version="1.4 (86a8ad7, 2024-10-11)"
   xmlns:inkscape="http://www.inkscape.org/namespaces/inkscape"
   xmlns:sodipodi="http://sodipodi.sourceforge.net/DTD/sodipodi-0.dtd"
   xmlns="http://www.w3.org/2000/svg"
   xmlns:svg="http://www.w3.org/2000/svg">
  <defs
     id="defs3" />
  <sodipodi:namedview
     id="namedview3"
     pagecolor="#ffffff"
     bordercolor="#000000"
     borderopacity="0.25"
     inkscape:showpageshadow="2"
     inkscape:pageopacity="0.0"
     inkscape:pagecheckerboard="0"
     inkscape:deskcolor="#d1d1d1"
     inkscape:document-units="mm"
     inkscape:zoom="9.6490235"
     inkscape:cx="33.733984"
     inkscape:cy="34.044896"
     inkscape:window-width="1920"
     inkscape:window-height="974"
     inkscape:window-x="-11"
     inkscape:window-y="-11"
     inkscape:window-maximized="1"
     inkscape:current-layer="svg3" />
  <!-- Pin con curva superiore sferica -->
  <path
     d="m 21.085033,1.0813379 c -5.568779,0 -10.083167,4.5817017 -10.083167,10.2335191 0,5.510357 5.429398,10.233519 10.083167,19.679844 C 25.738801,21.548376 31.1682,16.825214 31.1682,11.314857 31.1682,5.6630396 26.653813,1.0813379 21.085033,1.0813379 Z"
     fill="#4f95ff"
     stroke="#1c1c1c"
     stroke-width="1.2"
     id="path1"
     sodipodi:nodetypes="sscss" />
  <!-- Cerchio bianco centrale -->
  <ellipse
     cx="20.9974"
     cy="10.951069"
     fill="#ffffff"
     id="circle1"
     style="stroke-width:0.398578"
     rx="6.7062182"
     ry="6.8461328" />
  <!-- Triangolo di pericolo -->
  <!-- Punto esclamativo cartoon - stanghetta a goccia -->
  <!-- Pallino -->
  <path
     d="M 17.951844,16.130348 V 6.4820295 h 4.069775 c 0.968948,0 1.792657,0.3126744 2.47087,0.9380343 0.67834,0.6253488 1.017447,1.3847062 1.017447,2.2780713 0,0.8933659 -0.339107,1.6527349 -1.017447,2.2780369 -0.678213,0.625418 -1.501922,0.938069 -2.47087,0.938069 h -1.744196 v 3.216107 z m 2.325579,-5.360182 h 1.860465 c 0.319708,0 0.593437,-0.10497 0.821188,-0.314901 0.22775,-0.209943 0.341626,-0.4623163 0.341626,-0.7571299 0,-0.294813 -0.113876,-0.5471853 -0.341626,-0.7571285 -0.227751,-0.209931 -0.50148,-0.3149028 -0.821188,-0.3149028 h -1.860465 z"
     fill="#000000"
     id="path1-5"
     style="stroke-width:5.05771" />
</svg>
