<?xml version="1.0" encoding="UTF-8" standalone="no"?>
<svg
   width="128"
   height="128"
   viewBox="0 0 64 128"
   version="1.1"
   id="svg3"
   sodipodi:docname="pin_park.svg"
   inkscape:version="1.4 (86a8ad7, 2024-10-11)"
   xmlns:inkscape="http://www.inkscape.org/namespaces/inkscape"
   xmlns:sodipodi="http://sodipodi.sourceforge.net/DTD/sodipodi-0.dtd"
   xmlns="http://www.w3.org/2000/svg"
   xmlns:svg="http://www.w3.org/2000/svg">
  <defs
     id="defs3" />
  <sodipodi:namedview
     id="namedview3"
     pagecolor="#ffffff"
     bordercolor="#000000"
     borderopacity="0.25"
     inkscape:showpageshadow="2"
     inkscape:pageopacity="0.0"
     inkscape:pagecheckerboard="0"
     inkscape:deskcolor="#d1d1d1"
     inkscape:document-units="mm"
     inkscape:zoom="2.4122559"
     inkscape:cx="49.538692"
     inkscape:cy="13.058316"
     inkscape:window-width="1920"
     inkscape:window-height="974"
     inkscape:window-x="-11"
     inkscape:window-y="-11"
     inkscape:window-maximized="1"
     inkscape:current-layer="svg3" />
  <!-- Pin con curva superiore sferica -->
  <path
     d="m 7.6678816,1.8052414 c -6.5162082,0 -11.7986374,5.3611962 -11.7986374,11.9745686 0,6.447845 6.3531115,11.974569 11.7986374,23.028017 C 13.113406,25.754379 19.466519,20.227655 19.466519,13.77981 19.466519,7.1664376 14.184091,1.8052414 7.6678816,1.8052414 Z"
     fill="#4f95ff"
     stroke="#1c1c1c"
     stroke-width="1.40416"
     id="path1"
     sodipodi:nodetypes="sscss" />
  <!-- Cerchio bianco centrale -->
  <ellipse
     cx="7.5653381"
     cy="13.35413"
     fill="#ffffff"
     id="circle1"
     style="stroke-width:0.466388"
     rx="7.8471608"
     ry="8.0108795" />
  <!-- Triangolo di pericolo -->
  <!-- Punto esclamativo cartoon - stanghetta a goccia -->
  <!-- Pallino -->
  <path
     d="M 4.001636,19.41457 V 8.1247638 h 4.7621746 c 1.1337961,0 2.0976444,0.3658703 2.8912454,1.0976236 0.793747,0.7317412 1.190548,1.6202896 1.190548,2.6656446 0,1.045357 -0.396801,1.933918 -1.190548,2.665604 -0.793601,0.731822 -1.7574493,1.097665 -2.8912454,1.097665 H 6.722871 v 3.763269 z m 2.721235,-6.27212 h 2.1769894 c 0.3741013,0 0.6944001,-0.122831 0.9608986,-0.368476 0.266497,-0.245661 0.399747,-0.540972 0.399747,-0.885942 0,-0.34497 -0.133251,-0.640279 -0.399747,-0.885941 C 9.5942605,10.756445 9.2739617,10.633614 8.8998604,10.633614 H 6.722871 Z"
     fill="#000000"
     id="path1-5"
     style="stroke-width:5.91819" />
</svg>
