<svg xmlns:dc="http://purl.org/dc/elements/1.1/" xmlns:cc="http://creativecommons.org/ns#" xmlns:rdf="http://www.w3.org/1999/02/22-rdf-syntax-ns#" xmlns:svg="http://www.w3.org/2000/svg" xmlns="http://www.w3.org/2000/svg" xmlns:sodipodi="http://sodipodi.sourceforge.net/DTD/sodipodi-0.dtd" xmlns:inkscape="http://www.inkscape.org/namespaces/inkscape" role="img" fill="currentColor" viewBox="0 0 1.9143673 2.5475097" version="1.1" id="svg4" sodipodi:docname="pin-svg-01.svg" width="100%" height="100%" inkscape:version="1.0 (4035a4fb49, 2020-05-01)">
  <metadata id="metadata10">
    <rdf:RDF>
      <cc:Work rdf:about="">
        <dc:format>image/svg+xml</dc:format>
        <dc:type rdf:resource="http://purl.org/dc/dcmitype/StillImage"/>
        <dc:title/>
      </cc:Work>
    </rdf:RDF>
  </metadata>
  <defs id="defs8"/>
  <sodipodi:namedview inkscape:document-rotation="0" pagecolor="#ffffff" bordercolor="#666666" borderopacity="1" objecttolerance="10" gridtolerance="10" guidetolerance="10" inkscape:pageopacity="0" inkscape:pageshadow="2" inkscape:window-width="1920" inkscape:window-height="1017" id="namedview6" showgrid="false" fit-margin-top="0.3" fit-margin-left="0.3" fit-margin-right="0.3" fit-margin-bottom="0.3" showborder="false" inkscape:zoom="25.573695" inkscape:cx="7.215321" inkscape:cy="11.767901" inkscape:window-x="-8" inkscape:window-y="-8" inkscape:window-maximized="1" inkscape:current-layer="svg4"/>
  <g id="g925" style="opacity:1" transform="matrix(0.079162,0,0,0.079162,0.00731699,0.3238105)">
    <path data-siow="[  {   &quot;event&quot;: &quot;s4csvg_pin_status&quot;,   &quot;originator&quot;: &quot;server&quot;,   &quot;actions&quot;: [    {     &quot;input&quot;: &quot;$.lastValue&quot;,     &quot;target&quot;: &quot;style display&quot;, &quot;thresholds&quot;: &quot;none 0 inline 1 none&quot; }  ]  }  ]" style="color:#000000;font-style:normal;font-variant:normal;font-weight:normal;font-stretch:normal;font-size:medium;line-height:normal;font-family:sans-serif;font-variant-ligatures:normal;font-variant-position:normal;font-variant-caps:normal;font-variant-numeric:normal;font-variant-alternates:normal;font-variant-east-asian:normal;font-feature-settings:normal;font-variation-settings:normal;text-indent:0;text-align:start;text-decoration:none;text-decoration-line:none;text-decoration-style:solid;text-decoration-color:#000000;letter-spacing:normal;word-spacing:normal;text-transform:none;writing-mode:lr-tb;direction:ltr;text-orientation:mixed;dominant-baseline:auto;baseline-shift:baseline;text-anchor:start;white-space:normal;shape-padding:0;shape-margin:0;inline-size:0;clip-rule:nonzero;display:inline;overflow:visible;visibility:visible;isolation:auto;mix-blend-mode:normal;color-interpolation:sRGB;color-interpolation-filters:linearRGB;solid-color:#000000;solid-opacity:1;vector-effect:none;fill:#ff0000;fill-opacity:1;fill-rule:nonzero;stroke:none;stroke-width:0.6;stroke-linecap:butt;stroke-linejoin:miter;stroke-miterlimit:4;stroke-dasharray:none;stroke-dashoffset:0;stroke-opacity:1;color-rendering:auto;image-rendering:auto;shape-rendering:auto;text-rendering:auto;enable-background:accumulate;stop-color:#000000;stop-opacity:1" d="m 12,-1.4e-5 c -4.416,0.005 -7.995,3.584 -8,8 0,3.51 5,12.025 7.148,15.524 C 11.33,23.819986 11.653,24 12,24 c 0.348112,0.0018 0.671617,-0.179277 0.852,-0.477014 2.148,-3.497 7.148,-12.009 7.148,-15.523 -0.005,-4.416 -3.584,-7.995 -8,-8 z" id="red-pin"/>
    <path style="color:#000000;font-style:normal;font-variant:normal;font-weight:normal;font-stretch:normal;font-size:medium;line-height:normal;font-family:sans-serif;font-variant-ligatures:normal;font-variant-position:normal;font-variant-caps:normal;font-variant-numeric:normal;font-variant-alternates:normal;font-variant-east-asian:normal;font-feature-settings:normal;font-variation-settings:normal;text-indent:0;text-align:start;text-decoration:none;text-decoration-line:none;text-decoration-style:solid;text-decoration-color:#000000;letter-spacing:normal;word-spacing:normal;text-transform:none;writing-mode:lr-tb;direction:ltr;text-orientation:mixed;dominant-baseline:auto;baseline-shift:baseline;text-anchor:start;white-space:normal;shape-padding:0;shape-margin:0;inline-size:0;clip-rule:nonzero;display:inline;overflow:visible;visibility:visible;isolation:auto;mix-blend-mode:normal;color-interpolation:sRGB;color-interpolation-filters:linearRGB;solid-color:#000000;solid-opacity:1;vector-effect:none;fill-opacity:1;fill-rule:nonzero;stroke:none;stroke-width:0.6;stroke-linecap:butt;stroke-linejoin:miter;stroke-miterlimit:4;stroke-dasharray:none;stroke-dashoffset:0;stroke-opacity:1;color-rendering:auto;image-rendering:auto;shape-rendering:auto;text-rendering:auto;enable-background:accumulate;stop-color:#000000;stop-opacity:1" d="M 12,-0.30078125 C 7.4220914,-0.29559793 3.7044021,3.4220914 3.6992188,8 c 0,1.8974501 1.275844,4.88473 2.8007812,7.902344 1.5249372,3.017613 3.3161101,6.025776 4.392578,7.779297 0.236525,0.384678 0.656667,0.61914 1.107422,0.61914 0.451513,0.0018 0.872634,-0.235471 1.107422,-0.621093 l 0.002,-0.002 C 14.185962,21.924968 15.975507,18.918577 17.5,15.902344 19.024948,12.885212 20.300781,9.899288 20.300781,8 20.295598,3.4220914 16.577909,-0.29559793 12,-0.30078125 Z m 0,0.6015625 C 16.254091,0.30559793 19.694402,3.7459086 19.699219,8 c 0,1.614712 -1.224276,4.641195 -2.736328,7.632812 -1.512053,2.991618 -3.29567,5.987963 -4.367188,7.732422 v 0.002 c -0.125953,0.207895 -0.350673,0.333316 -0.59375,0.332031 H 12 c -0.243245,0 -0.468228,-0.12471 -0.595703,-0.332031 C 10.332765,21.621708 8.5491721,18.622996 7.0371094,15.630859 5.5250466,12.638723 4.3007813,9.6125499 4.3007812,8 4.3055979,3.7459086 7.7459086,0.30559793 12,0.30078125 Z" id="path929"/>
  </g>
  <g id="g919" style="opacity:1" transform="matrix(0.079162,0,0,0.079162,0.533466,0.28964098)">
    <path data-siow="[  {   &quot;event&quot;: &quot;s4csvg_pin_status&quot;,   &quot;originator&quot;: &quot;server&quot;,   &quot;actions&quot;: [    {     &quot;input&quot;: &quot;$.lastValue&quot;,     &quot;target&quot;: &quot;style display&quot;, &quot;thresholds&quot;: &quot;none 0 none 1 inline&quot; }  ]  }  ]" style="color:#000000;font-style:normal;font-variant:normal;font-weight:normal;font-stretch:normal;font-size:medium;line-height:normal;font-family:sans-serif;font-variant-ligatures:normal;font-variant-position:normal;font-variant-caps:normal;font-variant-numeric:normal;font-variant-alternates:normal;font-variant-east-asian:normal;font-feature-settings:normal;font-variation-settings:normal;text-indent:0;text-align:start;text-decoration:none;text-decoration-line:none;text-decoration-style:solid;text-decoration-color:#000000;letter-spacing:normal;word-spacing:normal;text-transform:none;writing-mode:lr-tb;direction:ltr;text-orientation:mixed;dominant-baseline:auto;baseline-shift:baseline;text-anchor:start;white-space:normal;shape-padding:0;shape-margin:0;inline-size:0;clip-rule:nonzero;display:inline;overflow:visible;visibility:visible;isolation:auto;mix-blend-mode:normal;color-interpolation:sRGB;color-interpolation-filters:linearRGB;solid-color:#000000;solid-opacity:1;vector-effect:none;fill:#00e300;fill-opacity:1;fill-rule:nonzero;stroke:none;stroke-width:0.6;stroke-linecap:butt;stroke-linejoin:miter;stroke-miterlimit:4;stroke-dasharray:none;stroke-dashoffset:0;stroke-opacity:1;color-rendering:auto;image-rendering:auto;shape-rendering:auto;text-rendering:auto;enable-background:accumulate;stop-color:#000000;stop-opacity:1" d="m 5.3525445,0.43011547 c -4.41599995,0.005 -7.995,3.58400003 -8,8.00000003 0,3.5099995 5,12.0249995 7.148,15.5239995 0.182,0.296 0.505,0.476014 0.852,0.476014 0.348112,0.0018 0.671617,-0.179277 0.852,-0.477014 2.148,-3.497 7.1480005,-12.009 7.1480005,-15.5229995 -0.005,-4.416 -3.5840005,-7.99500003 -8.0000005,-8.00000003 z" id="green-pin"/>
    <path style="color:#000000;font-style:normal;font-variant:normal;font-weight:normal;font-stretch:normal;font-size:medium;line-height:normal;font-family:sans-serif;font-variant-ligatures:normal;font-variant-position:normal;font-variant-caps:normal;font-variant-numeric:normal;font-variant-alternates:normal;font-variant-east-asian:normal;font-feature-settings:normal;font-variation-settings:normal;text-indent:0;text-align:start;text-decoration:none;text-decoration-line:none;text-decoration-style:solid;text-decoration-color:#000000;letter-spacing:normal;word-spacing:normal;text-transform:none;writing-mode:lr-tb;direction:ltr;text-orientation:mixed;dominant-baseline:auto;baseline-shift:baseline;text-anchor:start;white-space:normal;shape-padding:0;shape-margin:0;inline-size:0;clip-rule:nonzero;display:inline;overflow:visible;visibility:visible;isolation:auto;mix-blend-mode:normal;color-interpolation:sRGB;color-interpolation-filters:linearRGB;solid-color:#000000;solid-opacity:1;vector-effect:none;fill-opacity:1;fill-rule:nonzero;stroke:none;stroke-width:0.6;stroke-linecap:butt;stroke-linejoin:miter;stroke-miterlimit:4;stroke-dasharray:none;stroke-dashoffset:0;stroke-opacity:1;color-rendering:auto;image-rendering:auto;shape-rendering:auto;text-rendering:auto;enable-background:accumulate;stop-color:#000000;stop-opacity:1" d="m 5.3515625,0.13085938 c -4.57790851,0.005183 -8.2936448,3.72091952 -8.2988281,8.29882812 0,1.8974495 1.275844,4.8847305 2.80078122,7.9023435 1.52493728,3.017613 3.31415698,6.025777 4.39062498,7.779297 0.2365254,0.384679 0.6586206,0.619141 1.109375,0.619141 0.4524123,0.0017 0.872917,-0.234024 1.1074219,-0.621094 1.0764822,-1.752541 2.8656771,-4.758259 4.3906245,-7.775391 1.524948,-3.017132 2.800782,-6.005009 2.800782,-7.9042965 C 13.64716,3.8517789 9.9314242,0.1360427 5.3535156,0.13085938 Z m 0,0.59960937 h 0.00195 c 4.2531716,0.005891 7.6944025,3.44579285 7.6992185,7.69921875 0,1.6147115 -1.224275,4.6411945 -2.736328,7.6328125 -1.5120522,2.991618 -3.2956695,5.989916 -4.3671873,7.734375 h -0.00195 c -0.1259464,0.207885 -0.3506286,0.335241 -0.59375,0.333984 -0.2432455,0 -0.4701816,-0.126663 -0.5976562,-0.333984 C 3.6843274,22.051395 1.9007346,19.052684 0.38867188,16.060547 -1.1233909,13.06841 -2.3476562,10.042237 -2.3476562,8.4296875 -2.3428403,4.1762616 1.0983909,0.73635972 5.3515625,0.73046875 Z" id="path923"/>
  </g>
  <g id="g907" style="opacity:1" transform="matrix(0.079162,0,0,0.079162,-0.45095671,0.29273318)">
    <path data-siow="[  {   &quot;event&quot;: &quot;s4csvg_pin_status&quot;,   &quot;originator&quot;: &quot;server&quot;,   &quot;actions&quot;: [    {     &quot;input&quot;: &quot;$.lastValue&quot;,     &quot;target&quot;: &quot;style display&quot;, &quot;thresholds&quot;: &quot;inline 0 none 1 none&quot; }  ]  }  ]" style="color:#000000;font-style:normal;font-variant:normal;font-weight:normal;font-stretch:normal;font-size:medium;line-height:normal;font-family:sans-serif;font-variant-ligatures:normal;font-variant-position:normal;font-variant-caps:normal;font-variant-numeric:normal;font-variant-alternates:normal;font-variant-east-asian:normal;font-feature-settings:normal;font-variation-settings:normal;text-indent:0;text-align:start;text-decoration:none;text-decoration-line:none;text-decoration-style:solid;text-decoration-color:#000000;letter-spacing:normal;word-spacing:normal;text-transform:none;writing-mode:lr-tb;direction:ltr;text-orientation:mixed;dominant-baseline:auto;baseline-shift:baseline;text-anchor:start;white-space:normal;shape-padding:0;shape-margin:0;inline-size:0;clip-rule:nonzero;display:inline;overflow:visible;visibility:visible;opacity:1;isolation:auto;mix-blend-mode:normal;color-interpolation:sRGB;color-interpolation-filters:linearRGB;solid-color:#000000;solid-opacity:1;vector-effect:none;fill:#acacad;fill-opacity:1;fill-rule:nonzero;stroke:none;stroke-width:0.6;stroke-linecap:butt;stroke-linejoin:miter;stroke-miterlimit:4;stroke-dasharray:none;stroke-dashoffset:0;stroke-opacity:1;color-rendering:auto;image-rendering:auto;shape-rendering:auto;text-rendering:auto;enable-background:accumulate;stop-color:#000000;stop-opacity:1" d="m 17.787197,0.39101279 c -4.416,0.005 -7.9950005,3.58400001 -8.0000005,8.00000001 0,3.5100002 5.0000005,12.0249992 7.1480005,15.5240002 0.182,0.296 0.505,0.476014 0.852,0.476014 0.348112,0.0018 0.671617,-0.179277 0.852,-0.477015 2.148,-3.497 7.148,-12.008999 7.148,-15.5229992 -0.005,-4.416 -3.584,-7.99500001 -8,-8.00000001 z" id="grey-pin"/>
    <path style="color:#000000;font-style:normal;font-variant:normal;font-weight:normal;font-stretch:normal;font-size:medium;line-height:normal;font-family:sans-serif;font-variant-ligatures:normal;font-variant-position:normal;font-variant-caps:normal;font-variant-numeric:normal;font-variant-alternates:normal;font-variant-east-asian:normal;font-feature-settings:normal;font-variation-settings:normal;text-indent:0;text-align:start;text-decoration:none;text-decoration-line:none;text-decoration-style:solid;text-decoration-color:#000000;letter-spacing:normal;word-spacing:normal;text-transform:none;writing-mode:lr-tb;direction:ltr;text-orientation:mixed;dominant-baseline:auto;baseline-shift:baseline;text-anchor:start;white-space:normal;shape-padding:0;shape-margin:0;inline-size:0;clip-rule:nonzero;display:inline;overflow:visible;visibility:visible;isolation:auto;mix-blend-mode:normal;color-interpolation:sRGB;color-interpolation-filters:linearRGB;solid-color:#000000;solid-opacity:1;vector-effect:none;fill-opacity:1;fill-rule:nonzero;stroke:none;stroke-width:0.6;stroke-linecap:butt;stroke-linejoin:miter;stroke-miterlimit:4;stroke-dasharray:none;stroke-dashoffset:0;stroke-opacity:1;color-rendering:auto;image-rendering:auto;shape-rendering:auto;text-rendering:auto;enable-background:accumulate;stop-color:#000000;stop-opacity:1" d="M 17.787109,0.09179687 C 13.209201,0.09698019 9.4915114,3.8127164 9.4863281,8.390625 c 0,1.89745 1.2758439,4.884731 2.8007809,7.902344 1.524938,3.017613 3.31611,6.025776 4.392579,7.779297 0.236525,0.384678 0.656667,0.61914 1.107421,0.61914 0.451807,0.0017 0.872731,-0.234946 1.107422,-0.621094 1.076482,-1.752541 2.867631,-4.758258 4.392578,-7.77539 1.524948,-3.017132 2.800782,-6.005009 2.800782,-7.904297 -0.0052,-4.5779086 -3.722873,-8.29364481 -8.300782,-8.29882813 z m 0,0.59960938 c 4.254092,0.004817 7.694402,3.44512735 7.699219,7.69921875 0,1.614712 -1.224276,4.641195 -2.736328,7.632813 -1.512052,2.991617 -3.29567,5.989916 -4.367188,7.734374 -0.125946,0.207886 -0.350628,0.335242 -0.59375,0.333985 h -0.002 c -0.243245,0 -0.468228,-0.126663 -0.595703,-0.333985 -1.071532,-1.74548 -2.855124,-4.744191 -4.367187,-7.736328 -1.512063,-2.992136 -2.736328,-6.018309 -2.736328,-7.630859 0.0048,-4.2540914 3.445127,-7.69440207 7.699218,-7.69921875 z" id="path911"/>
  </g>
</svg>