<?xml version="1.0" encoding="UTF-8" standalone="no"?>
<svg
   width="128"
   height="128"
   viewBox="0 0 64 128"
   version="1.1"
   id="svg3"
   sodipodi:docname="pin_park.svg"
   inkscape:version="1.4 (86a8ad7, 2024-10-11)"
   xmlns:inkscape="http://www.inkscape.org/namespaces/inkscape"
   xmlns:sodipodi="http://sodipodi.sourceforge.net/DTD/sodipodi-0.dtd"
   xmlns="http://www.w3.org/2000/svg"
   xmlns:svg="http://www.w3.org/2000/svg">
  <defs
     id="defs3" />
  <sodipodi:namedview
     id="namedview3"
     pagecolor="#ffffff"
     bordercolor="#000000"
     borderopacity="0.25"
     inkscape:showpageshadow="2"
     inkscape:pageopacity="0.0"
     inkscape:pagecheckerboard="0"
     inkscape:deskcolor="#d1d1d1"
     inkscape:document-units="mm"
     inkscape:zoom="2.4122559"
     inkscape:cx="49.538692"
     inkscape:cy="13.058316"
     inkscape:window-width="1920"
     inkscape:window-height="974"
     inkscape:window-x="-11"
     inkscape:window-y="-11"
     inkscape:window-maximized="1"
     inkscape:current-layer="svg3" />
  <!-- Pin con curva superiore sferica -->
  <path
     d="m 12.849753,2.0962717 c -9.2173455,0 -16.6894785,7.583551 -16.6894785,16.9383373 0,9.120644 8.986641,16.938339 16.6894785,32.573728 7.702835,-15.635389 16.689479,-23.453084 16.689479,-32.573728 0,-9.3547863 -7.472132,-16.9383373 -16.689479,-16.9383373 z"
     fill="#4f95ff"
     stroke="#1c1c1c"
     stroke-width="1.98622"
     id="path1"
     sodipodi:nodetypes="sscss" />
  <!-- Cerchio bianco centrale -->
  <ellipse
     cx="12.704702"
     cy="18.432474"
     fill="#ffffff"
     id="circle1"
     style="stroke-width:0.659718"
     rx="11.100013"
     ry="11.331596" />
  <!-- Triangolo di pericolo -->
  <!-- Punto esclamativo cartoon - stanghetta a goccia -->
  <!-- Pallino -->
  <path
     d="M 7.6637535,27.005123 V 11.0354 h 6.7362195 c 1.603784,0 2.967173,0.517533 4.089742,1.552617 1.122775,1.035067 1.684061,2.291942 1.684061,3.770623 0,1.478685 -0.561286,2.735578 -1.684061,3.770566 -1.122569,1.035182 -2.485958,1.552676 -4.089742,1.552676 h -2.886962 v 5.323241 z m 3.8492575,-8.872076 h 3.079408 c 0.529176,0 0.982247,-0.173747 1.359216,-0.521218 0.376967,-0.347494 0.565452,-0.765219 0.565452,-1.253189 0,-0.487968 -0.188487,-0.905691 -0.565452,-1.253186 -0.376969,-0.347473 -0.83004,-0.52122 -1.359216,-0.52122 h -3.079408 z"
     fill="#000000"
     id="path1-5"
     style="stroke-width:8.37143" />
</svg>
