<?xml version="1.0" encoding="UTF-8" standalone="no"?>
<svg
   width="64"
   height="64"
   viewBox="0 0 64 64"
   version="1.1"
   id="svg3"
   sodipodi:docname="pin_park.svg"
   inkscape:version="1.4 (86a8ad7, 2024-10-11)"
   xmlns:inkscape="http://www.inkscape.org/namespaces/inkscape"
   xmlns:sodipodi="http://sodipodi.sourceforge.net/DTD/sodipodi-0.dtd"
   xmlns="http://www.w3.org/2000/svg"
   xmlns:svg="http://www.w3.org/2000/svg">
  <defs
     id="defs3" />
  <sodipodi:namedview
     id="namedview3"
     pagecolor="#ffffff"
     bordercolor="#000000"
     borderopacity="0.25"
     inkscape:showpageshadow="2"
     inkscape:pageopacity="0.0"
     inkscape:pagecheckerboard="0"
     inkscape:deskcolor="#d1d1d1"
     inkscape:document-units="mm"
     inkscape:zoom="9.6490235"
     inkscape:cx="33.733984"
     inkscape:cy="34.044896"
     inkscape:window-width="1920"
     inkscape:window-height="974"
     inkscape:window-x="-11"
     inkscape:window-y="-11"
     inkscape:window-maximized="1"
     inkscape:current-layer="svg3" />
  <!-- Pin con curva superiore sferica -->
  <path
     d="m 10.617653,0.60162816 c -4.00212,0 -7.246479,3.29273584 -7.246479,7.35453264 0,3.9601322 3.90195,7.3545322 7.246479,14.1433312 3.344528,-6.788799 7.246479,-10.183199 7.246479,-14.1433312 0,-4.0617968 -3.244358,-7.35453264 -7.246479,-7.35453264 z"
     fill="#4f95ff"
     stroke="#1c1c1c"
     stroke-width="0.862405"
     id="path1"
     sodipodi:nodetypes="sscss" />
  <!-- Cerchio bianco centrale -->
  <ellipse
     cx="10.554674"
     cy="7.6947169"
     fill="#ffffff"
     id="circle1"
     style="stroke-width:0.286446"
     rx="4.8195639"
     ry="4.9201164" />
  <!-- Triangolo di pericolo -->
  <!-- Punto esclamativo cartoon - stanghetta a goccia -->
  <!-- Pallino -->
  <path
     d="M 8.365921,11.416913 V 4.4829482 h 2.924829 c 0.696354,0 1.28833,0.22471 1.775743,0.674138 0.487503,0.44942 0.73121,0.9951481 0.73121,1.6371836 0,0.6420361 -0.243707,1.1877725 -0.73121,1.6371589 -0.487413,0.4494697 -1.079389,0.6741629 -1.775743,0.6741629 h -1.253503 v 2.3113214 z m 1.671326,-3.8522058 h 1.337062 c 0.229765,0 0.426486,-0.075439 0.590164,-0.2263102 0.163677,-0.1508799 0.245516,-0.3322533 0.245516,-0.5441272 0,-0.2118736 -0.08184,-0.3932462 -0.245516,-0.5441263 C 11.800795,6.0992722 11.604074,6.0238321 11.374309,6.0238321 h -1.337062 z"
     fill="#000000"
     id="path1-5"
     style="stroke-width:3.63483" />
</svg>
