<?xml version="1.0" encoding="UTF-8" standalone="no"?>
<svg
   width="19"
   height="24"
   viewBox="0 0 19 24"
   fill="none"
   version="1.1"
   id="svg1"
   sodipodi:docname="pin_alert.svg"
   inkscape:version="1.4 (86a8ad7, 2024-10-11)"
   xmlns:inkscape="http://www.inkscape.org/namespaces/inkscape"
   xmlns:sodipodi="http://sodipodi.sourceforge.net/DTD/sodipodi-0.dtd"
   xmlns="http://www.w3.org/2000/svg"
   xmlns:svg="http://www.w3.org/2000/svg">
  <defs
     id="defs1" />
  <sodipodi:namedview
     id="namedview1"
     pagecolor="#ffffff"
     bordercolor="#000000"
     borderopacity="0.25"
     inkscape:showpageshadow="2"
     inkscape:pageopacity="0.0"
     inkscape:pagecheckerboard="0"
     inkscape:deskcolor="#d1d1d1"
     inkscape:zoom="48.625"
     inkscape:cx="9.5012853"
     inkscape:cy="12"
     inkscape:window-width="2560"
     inkscape:window-height="1369"
     inkscape:window-x="-8"
     inkscape:window-y="-8"
     inkscape:window-maximized="1"
     inkscape:current-layer="svg1" />
  <ellipse
     style="fill:#ffff00;stroke-width:1.00157"
     id="path2"
     cx="9.4601536"
     cy="10.776349"
     rx="7.4858613"
     ry="9.9537277" />
  <path
     d="M8.3125 10.8H10.6875V4.8H8.3125V10.8ZM9.5 15.6C9.83646 15.6 10.1185 15.485 10.3461 15.255C10.5737 15.025 10.6875 14.74 10.6875 14.4C10.6875 14.06 10.5737 13.775 10.3461 13.545C10.1185 13.315 9.83646 13.2 9.5 13.2C9.16354 13.2 8.88151 13.315 8.65391 13.545C8.4263 13.775 8.3125 14.06 8.3125 14.4C8.3125 14.74 8.4263 15.025 8.65391 15.255C8.88151 15.485 9.16354 15.6 9.5 15.6ZM9.5 20.82C11.9146 18.58 13.7057 16.545 14.8734 14.715C16.0411 12.885 16.625 11.26 16.625 9.84C16.625 7.66 15.9372 5.875 14.5617 4.485C13.1862 3.095 11.499 2.4 9.5 2.4C7.50104 2.4 5.8138 3.095 4.43828 4.485C3.06276 5.875 2.375 7.66 2.375 9.84C2.375 11.26 2.95885 12.885 4.12656 14.715C5.29427 16.545 7.08542 18.58 9.5 20.82ZM9.5 24C6.31354 21.26 3.93359 18.715 2.36016 16.365C0.786719 14.015 0 11.84 0 9.84C0 6.84 0.954948 4.45 2.86484 2.67C4.77474 0.89 6.98646 0 9.5 0C12.0135 0 14.2253 0.89 16.1352 2.67C18.0451 4.45 19 6.84 19 9.84C19 11.84 18.2133 14.015 16.6398 16.365C15.0664 18.715 12.6865 21.26 9.5 24Z"
     fill="black"
     id="path1" />
</svg>
