<svg width="220" height="128" viewBox="0 0 220 128" fill="none" xmlns="http://www.w3.org/2000/svg">
<path d="M220 45.9561V0.664062H0V45.9561H13.1613V114.464H0V127.336H220V114.463H50.8887V45.9561H220ZM130.274 33.084H109.505L130.157 13.5366H150.925L130.274 33.084ZM169.651 13.5362H190.419L169.767 33.0836H148.999L169.651 13.5362ZM90.7801 33.084H70.012L90.6636 13.5366H111.432L90.7801 33.084ZM51.2862 33.084H30.5186L51.1702 13.5366H71.9383L51.2862 33.084ZM188.493 33.084L207.44 15.1497V33.084H188.493ZM32.4444 13.5362L13.4969 31.4705V13.5362H32.4444ZM38.0162 114.463H26.0339V45.9561H38.0166L38.0162 114.463Z" fill="white"/>
</svg>
