<?xml version="1.0" encoding="UTF-8" standalone="no"?>
<svg
   width="21"
   height="18"
   viewBox="0 0 21 18"
   fill="none"
   version="1.1"
   id="svg1"
   sodipodi:docname="sensori-1.svg"
   inkscape:version="1.4 (86a8ad7, 2024-10-11)"
   xmlns:inkscape="http://www.inkscape.org/namespaces/inkscape"
   xmlns:sodipodi="http://sodipodi.sourceforge.net/DTD/sodipodi-0.dtd"
   xmlns="http://www.w3.org/2000/svg"
   xmlns:svg="http://www.w3.org/2000/svg">
  <defs
     id="defs1" />
  <sodipodi:namedview
     id="namedview1"
     pagecolor="#ffffff"
     bordercolor="#000000"
     borderopacity="0.25"
     inkscape:showpageshadow="2"
     inkscape:pageopacity="0.0"
     inkscape:pagecheckerboard="0"
     inkscape:deskcolor="#d1d1d1"
     inkscape:zoom="20.416667"
     inkscape:cx="3.967347"
     inkscape:cy="11.338776"
     inkscape:window-width="1920"
     inkscape:window-height="1009"
     inkscape:window-x="-8"
     inkscape:window-y="-8"
     inkscape:window-maximized="1"
     inkscape:current-layer="svg1" />
  <path
     d="m 2.1470466,15.909529 v -1.615713 c 0.4004757,0 0.7422613,-0.06214 1.0253535,-0.186429 0.2830979,-0.124286 0.5696427,-0.258929 0.8596426,-0.403928 0.29,-0.145 0.6110713,-0.276163 0.9632141,-0.393572 0.3521427,-0.117408 0.7836958,-0.176071 1.2946425,-0.176071 0.5247673,0 0.9563121,0.05866 1.2946425,0.176071 0.3383388,0.117409 0.6524999,0.248572 0.9424998,0.393572 0.2899999,0.144999 0.5799999,0.279642 0.8699998,0.403928 0.2899999,0.124286 0.6352406,0.186429 1.0356976,0.186429 0.400531,0 0.745714,-0.06214 1.035714,-0.186429 0.29,-0.124286 0.58,-0.258929 0.869999,-0.403928 0.29,-0.145 0.607674,-0.276163 0.952857,-0.393572 0.345266,-0.117408 0.773388,-0.176071 1.284285,-0.176071 0.524817,0 0.959817,0.05866 1.305,0.176071 0.345266,0.117409 0.662857,0.248572 0.952857,0.393572 0.29,0.144999 0.58,0.279642 0.87,0.403928 0.29,0.124286 0.628388,0.186429 1.015,0.186429 v 1.615713 c -0.524735,0 -0.963214,-0.06214 -1.315357,-0.186428 -0.352143,-0.124286 -0.673214,-0.258929 -0.963214,-0.403929 -0.29,-0.145 -0.57304,-0.276162 -0.849286,-0.393571 -0.276163,-0.117408 -0.614468,-0.176071 -1.015,-0.176071 -0.386611,0 -0.721519,0.05866 -1.004642,0.176071 -0.28304,0.117409 -0.566163,0.248571 -0.849286,0.393571 -0.28304,0.145 -0.600714,0.279643 -0.952856,0.403929 -0.352143,0.124286 -0.7975,0.186428 -1.336071,0.186428 -0.5385549,0 -0.9839119,-0.06214 -1.3360547,-0.186428 C 8.7445415,15.598815 8.4269253,15.464172 8.1438274,15.319172 7.8607378,15.174172 7.581095,15.04301 7.3048991,14.925601 7.0287114,14.808193 6.6903809,14.74953 6.2898993,14.74953 c -0.386661,0 -0.7215447,0.05866 -1.0046426,0.176071 -0.2830896,0.117409 -0.5696427,0.248571 -0.8596426,0.393571 -0.29,0.145 -0.6110713,0.279643 -0.9632141,0.403929 -0.3521428,0.124286 -0.790592,0.186428 -1.3153534,0.186428 z m 0,-3.687142 v -1.615714 c 0.4004757,0 0.7422613,-0.06214 1.0253535,-0.186428 0.2830979,-0.124286 0.5696427,-0.258929 0.8596426,-0.403929 0.29,-0.1449996 0.6110713,-0.2761624 0.9632141,-0.393571 0.3521427,-0.1173836 0.7836958,-0.1760713 1.2946425,-0.1760713 0.5247673,0 0.9563121,0.058688 1.2946425,0.1760713 0.3383388,0.1174086 0.6524999,0.2485714 0.9424998,0.393571 0.2899999,0.145 0.5799999,0.279643 0.8699998,0.403929 0.2899999,0.124286 0.6352406,0.186428 1.0356976,0.186428 0.400531,0 0.745714,-0.06214 1.035714,-0.186428 0.29,-0.124286 0.58,-0.258929 0.869999,-0.403929 0.29,-0.1449996 0.607674,-0.2761624 0.952857,-0.393571 0.345266,-0.1173836 0.773388,-0.1760713 1.284285,-0.1760713 0.524817,0 0.959817,0.058688 1.305,0.1760713 0.345266,0.1174086 0.662857,0.2485714 0.952857,0.393571 0.29,0.145 0.58,0.279643 0.87,0.403929 0.29,0.124286 0.628388,0.186428 1.015,0.186428 v 1.615714 c -0.524735,0 -0.963214,-0.06214 -1.315357,-0.186428 -0.352143,-0.124286 -0.673214,-0.258929 -0.963214,-0.403929 -0.29,-0.145 -0.57304,-0.276162 -0.849286,-0.393571 -0.276163,-0.117409 -0.614468,-0.176071 -1.015,-0.176071 -0.400448,0 -0.742234,0.05866 -1.025356,0.176071 -0.28304,0.117409 -0.566163,0.248571 -0.849286,0.393571 -0.28304,0.145 -0.597234,0.279643 -0.942499,0.403929 -0.345183,0.124286 -0.787143,0.186428 -1.325714,0.186428 -0.5385549,0 -0.9839119,-0.06214 -1.3360547,-0.186428 C 8.7445415,11.911673 8.4269253,11.77703 8.1438274,11.63203 7.8607378,11.48703 7.581095,11.355868 7.3048991,11.238459 7.0287114,11.12105 6.6903809,11.062388 6.2898993,11.062388 c -0.386661,0 -0.7215447,0.05866 -1.0046426,0.176071 -0.2830896,0.117409 -0.5696427,0.248571 -0.8596426,0.393571 -0.29,0.145 -0.6110713,0.279643 -0.9632141,0.403929 -0.3521428,0.124286 -0.790592,0.186428 -1.3153534,0.186428 z m 0,-3.6871417 V 6.9195314 c 0.4004757,0 0.7422613,-0.062143 1.0253535,-0.1864285 C 3.455498,6.6088172 3.7420428,6.4741744 4.0320427,6.3291744 4.3220427,6.1841745 4.643114,6.0529868 4.9952568,5.9356031 5.3473995,5.8182194 5.7789526,5.7595317 6.2898993,5.7595317 c 0.5247673,0 0.9563121,0.058688 1.2946425,0.1760714 0.3383388,0.1173837 0.6524999,0.2485714 0.9424998,0.3935713 0.2899999,0.145 0.5799999,0.2796428 0.8699998,0.4039285 0.2899999,0.1242857 0.6352406,0.1864285 1.0356976,0.1864285 0.400531,0 0.745714,-0.062143 1.035714,-0.1864285 0.29,-0.1242857 0.58,-0.2589285 0.869999,-0.4039285 0.29,-0.1449999 0.607674,-0.2761876 0.952857,-0.3935713 0.345266,-0.1173837 0.773388,-0.1760714 1.284285,-0.1760714 0.524817,0 0.959817,0.058688 1.305,0.1760714 0.345266,0.1173837 0.662857,0.2485714 0.952857,0.3935713 0.29,0.145 0.58,0.2796428 0.87,0.4039285 0.29,0.1242857 0.628388,0.1864285 1.015,0.1864285 v 1.6157139 c -0.524735,0 -0.963214,-0.062143 -1.315357,-0.1864285 C 17.050951,8.2245311 16.72988,8.0898883 16.43988,7.9448883 16.14988,7.7998884 15.86684,7.6687007 15.590594,7.551317 c -0.276163,-0.1173837 -0.614468,-0.1760714 -1.015,-0.1760714 -0.386611,0 -0.721519,0.058688 -1.004642,0.1760714 -0.28304,0.1173837 -0.566163,0.2485714 -0.849286,0.3935713 -0.28304,0.145 -0.600714,0.2796428 -0.952856,0.4039285 -0.352143,0.1242857 -0.7975,0.1864285 -1.336071,0.1864285 -0.5385549,0 -0.9839119,-0.062143 -1.3360547,-0.1864285 C 8.7445415,8.2245311 8.4269253,8.0898883 8.1438274,7.9448883 7.8607378,7.7998884 7.581095,7.6687007 7.3048991,7.551317 7.0287114,7.4339333 6.6903809,7.3752456 6.2898993,7.3752456 c -0.386661,0 -0.7215447,0.058688 -1.0046426,0.1760714 C 5.0021671,7.6687007 4.715614,7.7998884 4.4256141,7.9448883 4.1356141,8.0898883 3.8145428,8.2245311 3.4624,8.3488168 3.1102572,8.4731025 2.671808,8.5352453 2.1470466,8.5352453 Z m 0,-3.6871419 V 3.2323895 c 0.4004757,0 0.7422613,-0.062143 1.0253535,-0.1864285 C 3.455498,2.9216753 3.7420428,2.7870325 4.0320427,2.6420325 4.3220427,2.4970326 4.643114,2.3658449 4.9952568,2.2484612 5.3473995,2.1310808 5.7789526,2.0723898 6.2898993,2.0723898 c 0.5247673,0 0.9563121,0.058691 1.2946425,0.1760714 0.3383388,0.1173837 0.6524999,0.2485714 0.9424998,0.3935713 0.2899999,0.145 0.5799999,0.2796428 0.8699998,0.4039285 0.2899999,0.1242857 0.6352406,0.1864285 1.0356976,0.1864285 0.400531,0 0.745714,-0.062143 1.035714,-0.1864285 0.29,-0.1242857 0.58,-0.2589285 0.869999,-0.4039285 0.29,-0.1449999 0.607674,-0.2761876 0.952857,-0.3935713 0.345266,-0.1173804 0.773388,-0.1760714 1.284285,-0.1760714 0.524817,0 0.959817,0.058691 1.305,0.1760714 0.345266,0.1173837 0.662857,0.2485714 0.952857,0.3935713 0.29,0.145 0.58,0.2796428 0.87,0.4039285 0.29,0.1242857 0.628388,0.1864285 1.015,0.1864285 v 1.6157139 c -0.524735,0 -0.963214,-0.062143 -1.315357,-0.1864285 C 17.050951,4.5373892 16.72988,4.4027464 16.43988,4.2577464 c -0.29,-0.145 -0.57304,-0.2761877 -0.849286,-0.3935713 -0.276163,-0.1173837 -0.614468,-0.1760714 -1.015,-0.1760714 -0.386611,0 -0.721519,0.058688 -1.004642,0.1760714 -0.28304,0.1173836 -0.566163,0.2485713 -0.849286,0.3935713 -0.28304,0.145 -0.600714,0.2796428 -0.952856,0.4039285 -0.352143,0.1242856 -0.7975,0.1864285 -1.336071,0.1864285 -0.5385549,0 -0.9839119,-0.062143 -1.3360547,-0.1864285 C 8.7445415,4.5373892 8.4269253,4.4027464 8.1438274,4.2577464 7.8607378,4.1127464 7.581095,3.9815587 7.3048991,3.8641751 7.0287114,3.7467914 6.6903809,3.6881037 6.2898993,3.6881037 c -0.386661,0 -0.7215447,0.058688 -1.0046426,0.1760714 C 5.0021671,3.9815587 4.715614,4.1127464 4.4256141,4.2577464 4.1356141,4.4027464 3.8145428,4.5373892 3.4624,4.6616749 3.1102572,4.7859605 2.671808,4.8481034 2.1470466,4.8481034 Z"
     fill="white"
     id="path1"
     style="stroke-width:0.828571" />
</svg>
