<svg width="21" height="18" viewBox="0 0 21 18" fill="none" xmlns="http://www.w3.org/2000/svg">
<path d="M0.0409241 17.5479V15.5979C0.524257 15.5979 0.936757 15.5229 1.27842 15.3729C1.62009 15.2229 1.96592 15.0604 2.31592 14.8854C2.66592 14.7104 3.05342 14.5521 3.47842 14.4104C3.90342 14.2687 4.42426 14.1979 5.04092 14.1979C5.67426 14.1979 6.19509 14.2687 6.60342 14.4104C7.01176 14.5521 7.39092 14.7104 7.74092 14.8854C8.09092 15.0604 8.44092 15.2229 8.79092 15.3729C9.14092 15.5229 9.55759 15.5979 10.0409 15.5979C10.5243 15.5979 10.9409 15.5229 11.2909 15.3729C11.6409 15.2229 11.9909 15.0604 12.3409 14.8854C12.6909 14.7104 13.0743 14.5521 13.4909 14.4104C13.9076 14.2687 14.4243 14.1979 15.0409 14.1979C15.6743 14.1979 16.1993 14.2687 16.6159 14.4104C17.0326 14.5521 17.4159 14.7104 17.7659 14.8854C18.1159 15.0604 18.4659 15.2229 18.8159 15.3729C19.1659 15.5229 19.5743 15.5979 20.0409 15.5979V17.5479C19.4076 17.5479 18.8784 17.4729 18.4534 17.3229C18.0284 17.1729 17.6409 17.0104 17.2909 16.8354C16.9409 16.6604 16.5993 16.5021 16.2659 16.3604C15.9326 16.2187 15.5243 16.1479 15.0409 16.1479C14.5743 16.1479 14.1701 16.2187 13.8284 16.3604C13.4868 16.5021 13.1451 16.6604 12.8034 16.8354C12.4618 17.0104 12.0784 17.1729 11.6534 17.3229C11.2284 17.4729 10.6909 17.5479 10.0409 17.5479C9.39092 17.5479 8.85342 17.4729 8.42842 17.3229C8.00342 17.1729 7.62009 17.0104 7.27842 16.8354C6.93676 16.6604 6.59926 16.5021 6.26592 16.3604C5.93259 16.2187 5.52426 16.1479 5.04092 16.1479C4.57426 16.1479 4.17009 16.2187 3.82842 16.3604C3.48676 16.5021 3.14092 16.6604 2.79092 16.8354C2.44092 17.0104 2.05342 17.1729 1.62842 17.3229C1.20342 17.4729 0.674257 17.5479 0.0409241 17.5479ZM0.0409241 13.0979V11.1479C0.524257 11.1479 0.936757 11.0729 1.27842 10.9229C1.62009 10.7729 1.96592 10.6104 2.31592 10.4354C2.66592 10.2604 3.05342 10.1021 3.47842 9.9604C3.90342 9.81873 4.42426 9.7479 5.04092 9.7479C5.67426 9.7479 6.19509 9.81873 6.60342 9.9604C7.01176 10.1021 7.39092 10.2604 7.74092 10.4354C8.09092 10.6104 8.44092 10.7729 8.79092 10.9229C9.14092 11.0729 9.55759 11.1479 10.0409 11.1479C10.5243 11.1479 10.9409 11.0729 11.2909 10.9229C11.6409 10.7729 11.9909 10.6104 12.3409 10.4354C12.6909 10.2604 13.0743 10.1021 13.4909 9.9604C13.9076 9.81873 14.4243 9.7479 15.0409 9.7479C15.6743 9.7479 16.1993 9.81873 16.6159 9.9604C17.0326 10.1021 17.4159 10.2604 17.7659 10.4354C18.1159 10.6104 18.4659 10.7729 18.8159 10.9229C19.1659 11.0729 19.5743 11.1479 20.0409 11.1479V13.0979C19.4076 13.0979 18.8784 13.0229 18.4534 12.8729C18.0284 12.7229 17.6409 12.5604 17.2909 12.3854C16.9409 12.2104 16.5993 12.0521 16.2659 11.9104C15.9326 11.7687 15.5243 11.6979 15.0409 11.6979C14.5576 11.6979 14.1451 11.7687 13.8034 11.9104C13.4618 12.0521 13.1201 12.2104 12.7784 12.3854C12.4368 12.5604 12.0576 12.7229 11.6409 12.8729C11.2243 13.0229 10.6909 13.0979 10.0409 13.0979C9.39092 13.0979 8.85342 13.0229 8.42842 12.8729C8.00342 12.7229 7.62009 12.5604 7.27842 12.3854C6.93676 12.2104 6.59926 12.0521 6.26592 11.9104C5.93259 11.7687 5.52426 11.6979 5.04092 11.6979C4.57426 11.6979 4.17009 11.7687 3.82842 11.9104C3.48676 12.0521 3.14092 12.2104 2.79092 12.3854C2.44092 12.5604 2.05342 12.7229 1.62842 12.8729C1.20342 13.0229 0.674257 13.0979 0.0409241 13.0979ZM0.0409241 8.6479V6.6979C0.524257 6.6979 0.936757 6.6229 1.27842 6.4729C1.62009 6.3229 1.96592 6.1604 2.31592 5.9854C2.66592 5.8104 3.05342 5.65207 3.47842 5.5104C3.90342 5.36873 4.42426 5.2979 5.04092 5.2979C5.67426 5.2979 6.19509 5.36873 6.60342 5.5104C7.01176 5.65207 7.39092 5.8104 7.74092 5.9854C8.09092 6.1604 8.44092 6.3229 8.79092 6.4729C9.14092 6.6229 9.55759 6.6979 10.0409 6.6979C10.5243 6.6979 10.9409 6.6229 11.2909 6.4729C11.6409 6.3229 11.9909 6.1604 12.3409 5.9854C12.6909 5.8104 13.0743 5.65207 13.4909 5.5104C13.9076 5.36873 14.4243 5.2979 15.0409 5.2979C15.6743 5.2979 16.1993 5.36873 16.6159 5.5104C17.0326 5.65207 17.4159 5.8104 17.7659 5.9854C18.1159 6.1604 18.4659 6.3229 18.8159 6.4729C19.1659 6.6229 19.5743 6.6979 20.0409 6.6979V8.6479C19.4076 8.6479 18.8784 8.5729 18.4534 8.4229C18.0284 8.2729 17.6409 8.1104 17.2909 7.9354C16.9409 7.7604 16.5993 7.60207 16.2659 7.4604C15.9326 7.31873 15.5243 7.2479 15.0409 7.2479C14.5743 7.2479 14.1701 7.31873 13.8284 7.4604C13.4868 7.60207 13.1451 7.7604 12.8034 7.9354C12.4618 8.1104 12.0784 8.2729 11.6534 8.4229C11.2284 8.5729 10.6909 8.6479 10.0409 8.6479C9.39092 8.6479 8.85342 8.5729 8.42842 8.4229C8.00342 8.2729 7.62009 8.1104 7.27842 7.9354C6.93676 7.7604 6.59926 7.60207 6.26592 7.4604C5.93259 7.31873 5.52426 7.2479 5.04092 7.2479C4.57426 7.2479 4.17009 7.31873 3.82842 7.4604C3.48676 7.60207 3.14092 7.7604 2.79092 7.9354C2.44092 8.1104 2.05342 8.2729 1.62842 8.4229C1.20342 8.5729 0.674257 8.6479 0.0409241 8.6479ZM0.0409241 4.1979V2.2479C0.524257 2.2479 0.936757 2.1729 1.27842 2.0229C1.62009 1.8729 1.96592 1.7104 2.31592 1.5354C2.66592 1.3604 3.05342 1.20207 3.47842 1.0604C3.90342 0.918734 4.42426 0.8479 5.04092 0.8479C5.67426 0.8479 6.19509 0.918734 6.60342 1.0604C7.01176 1.20207 7.39092 1.3604 7.74092 1.5354C8.09092 1.7104 8.44092 1.8729 8.79092 2.0229C9.14092 2.1729 9.55759 2.2479 10.0409 2.2479C10.5243 2.2479 10.9409 2.1729 11.2909 2.0229C11.6409 1.8729 11.9909 1.7104 12.3409 1.5354C12.6909 1.3604 13.0743 1.20207 13.4909 1.0604C13.9076 0.918734 14.4243 0.8479 15.0409 0.8479C15.6743 0.8479 16.1993 0.918734 16.6159 1.0604C17.0326 1.20207 17.4159 1.3604 17.7659 1.5354C18.1159 1.7104 18.4659 1.8729 18.8159 2.0229C19.1659 2.1729 19.5743 2.2479 20.0409 2.2479V4.1979C19.4076 4.1979 18.8784 4.1229 18.4534 3.9729C18.0284 3.8229 17.6409 3.6604 17.2909 3.4854C16.9409 3.3104 16.5993 3.15207 16.2659 3.0104C15.9326 2.86873 15.5243 2.7979 15.0409 2.7979C14.5743 2.7979 14.1701 2.86873 13.8284 3.0104C13.4868 3.15207 13.1451 3.3104 12.8034 3.4854C12.4618 3.6604 12.0784 3.8229 11.6534 3.9729C11.2284 4.1229 10.6909 4.1979 10.0409 4.1979C9.39092 4.1979 8.85342 4.1229 8.42842 3.9729C8.00342 3.8229 7.62009 3.6604 7.27842 3.4854C6.93676 3.3104 6.59926 3.15207 6.26592 3.0104C5.93259 2.86873 5.52426 2.7979 5.04092 2.7979C4.57426 2.7979 4.17009 2.86873 3.82842 3.0104C3.48676 3.15207 3.14092 3.3104 2.79092 3.4854C2.44092 3.6604 2.05342 3.8229 1.62842 3.9729C1.20342 4.1229 0.674257 4.1979 0.0409241 4.1979Z" fill="#FF1616"/>
</svg>
