<?xml version="1.0" encoding="UTF-8" standalone="no"?>
<svg
   width="24"
   height="45"
   viewBox="0 0 24 45"
   fill="none"
   version="1.1"
   id="svg2"
   sodipodi:docname="sensori-1.svg"
   inkscape:version="1.4 (86a8ad7, 2024-10-11)"
   xmlns:inkscape="http://www.inkscape.org/namespaces/inkscape"
   xmlns:sodipodi="http://sodipodi.sourceforge.net/DTD/sodipodi-0.dtd"
   xmlns="http://www.w3.org/2000/svg"
   xmlns:svg="http://www.w3.org/2000/svg">
  <defs
     id="defs2" />
  <sodipodi:namedview
     id="namedview2"
     pagecolor="#ffffff"
     bordercolor="#000000"
     borderopacity="0.25"
     inkscape:showpageshadow="2"
     inkscape:pageopacity="0.0"
     inkscape:pagecheckerboard="0"
     inkscape:deskcolor="#d1d1d1"
     inkscape:zoom="40.333333"
     inkscape:cx="12"
     inkscape:cy="22.5"
     inkscape:window-width="3840"
     inkscape:window-height="2054"
     inkscape:window-x="2869"
     inkscape:window-y="-11"
     inkscape:window-maximized="1"
     inkscape:current-layer="g2" />
  <mask
     id="mask0_981_4087"
     style="mask-type:alpha"
     maskUnits="userSpaceOnUse"
     x="0"
     y="0"
     width="24"
     height="24">
    <rect
       width="24"
       height="24"
       fill="#D9D9D9"
       id="rect1" />
  </mask>
  <g
     mask="url(#mask0_981_4087)"
     id="g1">
    <path
       d="M6 21V22C6 22.2833 5.90417 22.5208 5.7125 22.7125C5.52083 22.9042 5.28333 23 5 23H4C3.71667 23 3.47917 22.9042 3.2875 22.7125C3.09583 22.5208 3 22.2833 3 22V14L5.1 8C5.2 7.7 5.37917 7.45833 5.6375 7.275C5.89583 7.09167 6.18333 7 6.5 7H17.5C17.8167 7 18.1042 7.09167 18.3625 7.275C18.6208 7.45833 18.8 7.7 18.9 8L21 14V22C21 22.2833 20.9042 22.5208 20.7125 22.7125C20.5208 22.9042 20.2833 23 20 23H19C18.7167 23 18.4792 22.9042 18.2875 22.7125C18.0958 22.5208 18 22.2833 18 22V21H6ZM5.8 12H18.2L17.15 9H6.85L5.8 12ZM7.5 18C7.91667 18 8.27083 17.8542 8.5625 17.5625C8.85417 17.2708 9 16.9167 9 16.5C9 16.0833 8.85417 15.7292 8.5625 15.4375C8.27083 15.1458 7.91667 15 7.5 15C7.08333 15 6.72917 15.1458 6.4375 15.4375C6.14583 15.7292 6 16.0833 6 16.5C6 16.9167 6.14583 17.2708 6.4375 17.5625C6.72917 17.8542 7.08333 18 7.5 18ZM16.5 18C16.9167 18 17.2708 17.8542 17.5625 17.5625C17.8542 17.2708 18 16.9167 18 16.5C18 16.0833 17.8542 15.7292 17.5625 15.4375C17.2708 15.1458 16.9167 15 16.5 15C16.0833 15 15.7292 15.1458 15.4375 15.4375C15.1458 15.7292 15 16.0833 15 16.5C15 16.9167 15.1458 17.2708 15.4375 17.5625C15.7292 17.8542 16.0833 18 16.5 18ZM5 19H19V14H5V19Z"
       fill="white"
       id="path1" />
  </g>
  <mask
     id="mask1_981_4087"
     style="mask-type:alpha"
     maskUnits="userSpaceOnUse"
     x="0"
     y="21"
     width="24"
     height="24">
    <rect
       y="21"
       width="24"
       height="24"
       fill="#D9D9D9"
       id="rect2" />
  </mask>
  <g
     mask="url(#mask1_981_4087)"
     id="g2">
    <path
       d="M4 36C3.71667 36 3.47917 35.9042 3.2875 35.7125C3.09583 35.5208 3 35.2833 3 35C3 34.7167 3.09583 34.4792 3.2875 34.2875C3.47917 34.0958 3.71667 34 4 34H6C6.28333 34 6.52083 34.0958 6.7125 34.2875C6.90417 34.4792 7 34.7167 7 35C7 35.2833 6.90417 35.5208 6.7125 35.7125C6.52083 35.9042 6.28333 36 6 36H4ZM10 36C9.71667 36 9.47917 35.9042 9.2875 35.7125C9.09583 35.5208 9 35.2833 9 35C9 34.7167 9.09583 34.4792 9.2875 34.2875C9.47917 34.0958 9.71667 34 10 34H20C20.2833 34 20.5208 34.0958 20.7125 34.2875C20.9042 34.4792 21 34.7167 21 35C21 35.2833 20.9042 35.5208 20.7125 35.7125C20.5208 35.9042 20.2833 36 20 36H10ZM4 32C3.71667 32 3.47917 31.9042 3.2875 31.7125C3.09583 31.5208 3 31.2833 3 31C3 30.7167 3.09583 30.4792 3.2875 30.2875C3.47917 30.0958 3.71667 30 4 30H15C15.2833 30 15.5208 30.0958 15.7125 30.2875C15.9042 30.4792 16 30.7167 16 31C16 31.2833 15.9042 31.5208 15.7125 31.7125C15.5208 31.9042 15.2833 32 15 32H4ZM19 32C18.7167 32 18.4792 31.9042 18.2875 31.7125C18.0958 31.5208 18 31.2833 18 31C18 30.7167 18.0958 30.4792 18.2875 30.2875C18.4792 30.0958 18.7167 30 19 30H20C20.2833 30 20.5208 30.0958 20.7125 30.2875C20.9042 30.4792 21 30.7167 21 31C21 31.2833 20.9042 31.5208 20.7125 31.7125C20.5208 31.9042 20.2833 32 20 32H19ZM4 28C3.71667 28 3.47917 27.9042 3.2875 27.7125C3.09583 27.5208 3 27.2833 3 27C3 26.7167 3.09583 26.4792 3.2875 26.2875C3.47917 26.0958 3.71667 26 4 26H9C9.28333 26 9.52083 26.0958 9.7125 26.2875C9.90417 26.4792 10 26.7167 10 27C10 27.2833 9.90417 27.5208 9.7125 27.7125C9.52083 27.9042 9.28333 28 9 28H4ZM13 28C12.7167 28 12.4792 27.9042 12.2875 27.7125C12.0958 27.5208 12 27.2833 12 27C12 26.7167 12.0958 26.4792 12.2875 26.2875C12.4792 26.0958 12.7167 26 13 26H20C20.2833 26 20.5208 26.0958 20.7125 26.2875C20.9042 26.4792 21 26.7167 21 27C21 27.2833 20.9042 27.5208 20.7125 27.7125C20.5208 27.9042 20.2833 28 20 28H13Z"
       fill="white"
       id="path2" />
  </g>
</svg>
