<?xml version="1.0" encoding="UTF-8" standalone="no"?>
<svg
   width="21"
   height="18"
   viewBox="0 0 21 18"
   fill="none"
   version="1.1"
   id="svg1"
   sodipodi:docname="sensori-2.svg"
   inkscape:version="1.4 (86a8ad7, 2024-10-11)"
   xmlns:inkscape="http://www.inkscape.org/namespaces/inkscape"
   xmlns:sodipodi="http://sodipodi.sourceforge.net/DTD/sodipodi-0.dtd"
   xmlns="http://www.w3.org/2000/svg"
   xmlns:svg="http://www.w3.org/2000/svg">
  <defs
     id="defs1" />
  <sodipodi:namedview
     id="namedview1"
     pagecolor="#ffffff"
     bordercolor="#000000"
     borderopacity="0.25"
     inkscape:showpageshadow="2"
     inkscape:pageopacity="0.0"
     inkscape:pagecheckerboard="0"
     inkscape:deskcolor="#d1d1d1"
     inkscape:zoom="22.416667"
     inkscape:cx="5.5315985"
     inkscape:cy="7.6951673"
     inkscape:window-width="1920"
     inkscape:window-height="1009"
     inkscape:window-x="-8"
     inkscape:window-y="-8"
     inkscape:window-maximized="1"
     inkscape:current-layer="svg1" />
  <path
     d="m 1.91453,16.130649 v -1.680335 c 0.4164927,0 0.7719481,-0.06463 1.0663624,-0.193884 0.2944205,-0.129256 0.5924255,-0.269284 0.894024,-0.420084 0.3015985,-0.150799 0.635511,-0.287208 1.0017377,-0.409312 0.3662268,-0.122104 0.8150398,-0.183113 1.3464217,-0.183113 0.5457553,0 0.9945597,0.06101 1.3464217,0.183113 0.3518706,0.122104 0.6785965,0.258513 0.980195,0.409312 0.3015984,0.1508 0.6031969,0.290828 0.9047954,0.420084 0.3015983,0.129256 0.6606471,0.193884 1.0771201,0.193884 0.41655,0 0.775539,-0.06463 1.077137,-0.193884 0.301598,-0.129256 0.603197,-0.269284 0.904796,-0.420084 0.301599,-0.150799 0.631977,-0.287208 0.990966,-0.409312 0.359075,-0.122104 0.80432,-0.183113 1.335651,-0.183113 0.545806,0 0.998204,0.06101 1.357193,0.183113 0.359074,0.122104 0.689367,0.258513 0.990965,0.409312 0.301599,0.1508 0.603198,0.290828 0.904797,0.420084 0.301598,0.129256 0.65352,0.193884 1.055593,0.193884 v 1.680335 c -0.54572,0 -1.001737,-0.06463 -1.367964,-0.193885 -0.366226,-0.129256 -0.700138,-0.269284 -1.001738,-0.420083 -0.301598,-0.1508 -0.595958,-0.287209 -0.883252,-0.409312 -0.287208,-0.122105 -0.639044,-0.183114 -1.055594,-0.183114 -0.402075,0 -0.750378,0.06101 -1.044823,0.183114 -0.294361,0.122103 -0.588808,0.258512 -0.883253,0.409312 -0.294361,0.150799 -0.62474,0.290827 -0.990967,0.420083 -0.366226,0.129256 -0.829396,0.193885 -1.389507,0.193885 -0.5600947,0 -1.0232633,-0.06463 -1.38949,-0.193885 C 8.7758913,15.807508 8.4455721,15.66748 8.1511517,15.516681 7.8567398,15.365881 7.5659127,15.229472 7.2786704,15.107369 6.9914367,14.985264 6.6395746,14.924255 6.2230758,14.924255 c -0.4021255,0 -0.7504028,0.06101 -1.0448232,0.183114 -0.2944118,0.122103 -0.5924255,0.258512 -0.894024,0.409312 C 3.9826301,15.66748 3.6487176,15.807508 3.2824909,15.936764 2.9162642,16.06602 2.4602792,16.130649 1.91453,16.130649 Z m 0,-3.834609 v -1.680335 c 0.4164927,0 0.7719481,-0.06463 1.0663624,-0.193884 0.2944205,-0.129257 0.5924255,-0.269285 0.894024,-0.420084 C 4.1765149,9.8509374 4.5104274,9.7145288 4.8766541,9.5924245 5.2428809,9.470346 5.6916939,9.4093112 6.2230758,9.4093112 c 0.5457553,0 0.9945597,0.061035 1.3464217,0.1831133 0.3518706,0.1221043 0.6785965,0.2585129 0.980195,0.4093125 0.3015984,0.150799 0.6031969,0.290827 0.9047954,0.420084 0.3015983,0.129256 0.6606471,0.193884 1.0771201,0.193884 0.41655,0 0.775539,-0.06463 1.077137,-0.193884 0.301598,-0.129257 0.603197,-0.269285 0.904796,-0.420084 0.301599,-0.1507996 0.631977,-0.2872082 0.990966,-0.4093125 0.359075,-0.1220785 0.80432,-0.1831133 1.335651,-0.1831133 0.545806,0 0.998204,0.061035 1.357193,0.1831133 0.359074,0.1221043 0.689367,0.2585129 0.990965,0.4093125 0.301599,0.150799 0.603198,0.290827 0.904797,0.420084 0.301598,0.129256 0.65352,0.193884 1.055593,0.193884 v 1.680335 c -0.54572,0 -1.001737,-0.06463 -1.367964,-0.193884 -0.366226,-0.129258 -0.700138,-0.269285 -1.001738,-0.420084 -0.301598,-0.150799 -0.595958,-0.287208 -0.883252,-0.409313 -0.287208,-0.122104 -0.639044,-0.183114 -1.055594,-0.183114 -0.416465,0 -0.77192,0.06101 -1.066367,0.183114 -0.294359,0.122105 -0.588806,0.258514 -0.883253,0.409313 -0.294359,0.150799 -0.62112,0.290826 -0.980195,0.420084 -0.358988,0.129256 -0.818624,0.193884 -1.378735,0.193884 -0.5600947,0 -1.0232633,-0.06463 -1.38949,-0.193884 C 8.7758913,11.972898 8.4455721,11.832871 8.1511517,11.682072 7.8567398,11.531273 7.5659127,11.394864 7.2786704,11.272759 6.9914367,11.150655 6.6395746,11.089645 6.2230758,11.089645 c -0.4021255,0 -0.7504028,0.06101 -1.0448232,0.183114 -0.2944118,0.122105 -0.5924255,0.258514 -0.894024,0.409313 -0.3015985,0.150799 -0.635511,0.290826 -1.0017377,0.420084 C 2.9162642,12.231412 2.4602792,12.29604 1.91453,12.29604 Z m 0,-3.8346097 V 6.7810961 c 0.4164927,0 0.7719481,-0.064628 1.0663624,-0.1938848 C 3.2753129,6.4579548 3.5733179,6.317927 3.8749164,6.1671277 4.1765149,6.0163286 4.5104274,5.879894 4.8766541,5.7578155 5.2428809,5.6357371 5.6916939,5.5747022 6.2230758,5.5747022 c 0.5457553,0 0.9945597,0.061035 1.3464217,0.1831133 0.3518706,0.1220785 0.6785965,0.2585131 0.980195,0.4093122 0.3015984,0.1507993 0.6031969,0.2908271 0.9047954,0.4200836 0.3015983,0.1292565 0.6606471,0.1938848 1.0771201,0.1938848 0.41655,0 0.775539,-0.064628 1.077137,-0.1938848 0.301598,-0.1292565 0.603197,-0.2692843 0.904796,-0.4200836 0.301599,-0.1507991 0.631977,-0.2872337 0.990966,-0.4093122 0.359075,-0.1220784 0.80432,-0.1831133 1.335651,-0.1831133 0.545806,0 0.998204,0.061035 1.357193,0.1831133 0.359074,0.1220785 0.689367,0.2585131 0.990965,0.4093122 0.301599,0.1507993 0.603198,0.2908271 0.904797,0.4200836 0.301598,0.1292565 0.65352,0.1938848 1.055593,0.1938848 v 1.6803342 c -0.54572,0 -1.001737,-0.064628 -1.367964,-0.1938848 C 17.414516,8.138289 17.080604,7.9982612 16.779004,7.847462 16.477406,7.6966628 16.183046,7.5602283 15.895752,7.4381498 15.608544,7.3160713 15.256708,7.2550365 14.840158,7.2550365 c -0.402075,0 -0.750378,0.061035 -1.044823,0.1831133 -0.294361,0.1220785 -0.588808,0.258513 -0.883253,0.4093122 -0.294361,0.1507992 -0.62474,0.290827 -0.990967,0.4200835 -0.366226,0.1292565 -0.829396,0.1938848 -1.389507,0.1938848 -0.5600947,0 -1.0232633,-0.064628 -1.38949,-0.1938848 C 8.7758913,8.138289 8.4455721,7.9982612 8.1511517,7.847462 7.8567398,7.6966628 7.5659127,7.5602283 7.2786704,7.4381498 6.9914367,7.3160713 6.6395746,7.2550365 6.2230758,7.2550365 c -0.4021255,0 -0.7504028,0.061035 -1.0448232,0.1831133 C 4.8838408,7.5602283 4.5858271,7.6966628 4.2842286,7.847462 3.9826301,7.9982612 3.6487176,8.138289 3.2824909,8.2675455 2.9162642,8.396802 2.4602792,8.4614303 1.91453,8.4614303 Z m 0,-3.8346089 V 2.9464871 c 0.4164927,0 0.7719481,-0.064628 1.0663624,-0.1938847 C 3.2753129,2.6233459 3.5733179,2.483318 3.8749164,2.3325189 4.1765149,2.1817196 4.5104274,2.0452851 4.8766541,1.9232067 5.2428809,1.8011317 5.6916939,1.7400933 6.2230758,1.7400933 c 0.5457553,0 0.9945597,0.061038 1.3464217,0.1831134 0.3518706,0.1220784 0.6785965,0.2585129 0.980195,0.4093122 0.3015984,0.1507991 0.6031969,0.290827 0.9047954,0.4200835 0.3015983,0.1292564 0.6606471,0.1938847 1.0771201,0.1938847 0.41655,0 0.775539,-0.064628 1.077137,-0.1938847 0.301598,-0.1292565 0.603197,-0.2692844 0.904796,-0.4200835 0.301599,-0.1507993 0.631977,-0.2872338 0.990966,-0.4093122 0.359075,-0.122075 0.80432,-0.1831134 1.335651,-0.1831134 0.545806,0 0.998204,0.061038 1.357193,0.1831134 0.359074,0.1220784 0.689367,0.2585129 0.990965,0.4093122 0.301599,0.1507991 0.603198,0.290827 0.904797,0.4200835 0.301598,0.1292564 0.65352,0.1938847 1.055593,0.1938847 v 1.6803343 c -0.54572,0 -1.001737,-0.064628 -1.367964,-0.1938847 C 17.414516,4.3036802 17.080604,4.1636524 16.779004,4.0128531 16.477406,3.8620539 16.183046,3.7256193 15.895752,3.6035409 15.608544,3.4814625 15.256708,3.4204275 14.840158,3.4204275 c -0.402075,0 -0.750378,0.061035 -1.044823,0.1831134 -0.294361,0.1220784 -0.588808,0.258513 -0.883253,0.4093122 -0.294361,0.1507993 -0.62474,0.2908271 -0.990967,0.4200836 -0.366226,0.1292565 -0.829396,0.1938847 -1.389507,0.1938847 -0.5600947,0 -1.0232633,-0.064628 -1.38949,-0.1938847 C 8.7758913,4.3036802 8.4455721,4.1636524 8.1511517,4.0128531 7.8567398,3.8620539 7.5659127,3.7256193 7.2786704,3.6035409 6.9914367,3.4814625 6.6395746,3.4204275 6.2230758,3.4204275 c -0.4021255,0 -0.7504028,0.061035 -1.0448232,0.1831134 C 4.8838408,3.7256193 4.5858271,3.8620539 4.2842286,4.0128531 3.9826301,4.1636524 3.6487176,4.3036802 3.2824909,4.4329367 2.9162642,4.5621932 2.4602792,4.6268214 1.91453,4.6268214 Z"
     fill="#ff1616"
     id="path1"
     style="stroke-width:0.86171" />
</svg>
