<svg width="18" height="19" viewBox="0 0 18 19" fill="none" xmlns="http://www.w3.org/2000/svg">
<path d="M6 8.5C6.28333 8.5 6.52083 8.40417 6.7125 8.2125C6.90417 8.02083 7 7.78333 7 7.5C7 7.21667 6.90417 6.97917 6.7125 6.7875C6.52083 6.59583 6.28333 6.5 6 6.5C5.71667 6.5 5.47917 6.59583 5.2875 6.7875C5.09583 6.97917 5 7.21667 5 7.5C5 7.78333 5.09583 8.02083 5.2875 8.2125C5.47917 8.40417 5.71667 8.5 6 8.5ZM12 8.5C12.2833 8.5 12.5208 8.40417 12.7125 8.2125C12.9042 8.02083 13 7.78333 13 7.5C13 7.21667 12.9042 6.97917 12.7125 6.7875C12.5208 6.59583 12.2833 6.5 12 6.5C11.7167 6.5 11.4792 6.59583 11.2875 6.7875C11.0958 6.97917 11 7.21667 11 7.5C11 7.78333 11.0958 8.02083 11.2875 8.2125C11.4792 8.40417 11.7167 8.5 12 8.5ZM2 5.6L3.65 0.8C3.73333 0.566667 3.87083 0.375 4.0625 0.225C4.25417 0.075 4.46667 0 4.7 0H13.3C13.5333 0 13.7458 0.075 13.9375 0.225C14.1292 0.375 14.2667 0.566667 14.35 0.8L16 5.6V12.2C16 12.4333 15.925 12.625 15.775 12.775C15.625 12.925 15.4333 13 15.2 13H14.8C14.5667 13 14.375 12.925 14.225 12.775C14.075 12.625 14 12.4333 14 12.2V11H4V12.2C4 12.4333 3.925 12.625 3.775 12.775C3.625 12.925 3.43333 13 3.2 13H2.8C2.56667 13 2.375 12.925 2.225 12.775C2.075 12.625 2 12.4333 2 12.2V5.6ZM4.65 4H13.35L12.65 2H5.35L4.65 4ZM4 9H14V6H4V9Z" fill="white"/>
<path d="M0 14V13H18V14H0Z" fill="white"/>
<path d="M2.5 19L1 17.4L1.525 16.84L2.125 17.47V15H2.875V17.47L3.475 16.84L4 17.4L2.5 19Z" fill="white"/>
<path d="M8.5 19L7 17.4L7.525 16.84L8.125 17.47V15H8.875V17.47L9.475 16.84L10 17.4L8.5 19Z" fill="white"/>
<path d="M15.5 19L14 17.4L14.525 16.84L15.125 17.47V15H15.875V17.47L16.475 16.84L17 17.4L15.5 19Z" fill="white"/>
</svg>
