<svg width="26" height="26" viewBox="0 0 26 26" fill="none" xmlns="http://www.w3.org/2000/svg">
<path d="M10.3333 18.3333V7.66667H13.8893C14.8707 7.66667 15.6667 8.86 15.6667 10.3333C15.6667 11.8067 14.8707 13 13.8893 13H10.3333M1 3.66667C1 2.95942 1.28095 2.28115 1.78105 1.78105C2.28115 1.28095 2.95942 1 3.66667 1H22.3333C23.0406 1 23.7189 1.28095 24.219 1.78105C24.719 2.28115 25 2.95942 25 3.66667V22.3333C25 23.0406 24.719 23.7189 24.219 24.219C23.7189 24.719 23.0406 25 22.3333 25H3.66667C2.95942 25 2.28115 24.719 1.78105 24.219C1.28095 23.7189 1 23.0406 1 22.3333V3.66667Z" stroke="white" stroke-width="1.5" stroke-linecap="round" stroke-linejoin="round"/>
</svg>
