<?xml version="1.0" encoding="UTF-8" standalone="no"?>
<!-- Uploaded to: SVG Repo, www.svgrepo.com, Generator: SVG Repo Mixer Tools -->

<svg
   height="32"
   width="32"
   version="1.1"
   id="Layer_1"
   viewBox="0 -320 600 600"
   xml:space="preserve"
   sodipodi:docname="traffic_cam.svg"
   inkscape:version="1.4 (86a8ad7, 2024-10-11)"
   xmlns:inkscape="http://www.inkscape.org/namespaces/inkscape"
   xmlns:sodipodi="http://sodipodi.sourceforge.net/DTD/sodipodi-0.dtd"
   xmlns="http://www.w3.org/2000/svg"
   xmlns:svg="http://www.w3.org/2000/svg"><defs
   id="defs8" /><sodipodi:namedview
   id="namedview8"
   pagecolor="#ffffff"
   bordercolor="#000000"
   borderopacity="0.25"
   inkscape:showpageshadow="2"
   inkscape:pageopacity="0.0"
   inkscape:pagecheckerboard="0"
   inkscape:deskcolor="#d1d1d1"
   inkscape:zoom="14.481547"
   inkscape:cx="19.680218"
   inkscape:cy="23.581735"
   inkscape:window-width="1920"
   inkscape:window-height="974"
   inkscape:window-x="-11"
   inkscape:window-y="-11"
   inkscape:window-maximized="1"
   inkscape:current-layer="g8" />
<path
   style="fill:#d7deed;stroke-width:1.14825"
   d="m 49.754238,-186.22369 -31.41838,86.3196 c -6.912458,18.98974 2.970519,40.18296 21.960255,47.095418 L 435.49575,90.865938 c 18.99089,6.912462 40.18297,-2.97052 47.09542,-21.960252 L 510.8668,-8.7825217 Z"
   id="path1" />
<path
   style="fill:#eff2fa;stroke-width:1.14825"
   d="M 163.52846,-95.93574 429.24469,0.61130029 c 18.99089,6.91130801 49.51363,5.57819101 67.82934,-2.96248099 l 74.68325,-34.8240863 c 18.31571,-8.540674 17.7634,-21.18404 -1.22633,-28.096497 L 106.27449,-234.08154 c -18.990889,-6.91246 -40.184114,2.97052 -47.095425,21.9614 L 46.61263,-177.5923 c -6.912458,18.98973 2.970518,40.18182 21.960258,47.09542 l 8.63483,3.14275 z"
   id="path2" />
<path
   style="fill:#afb9d2;stroke-width:1.14825"
   d="m 482.59117,68.904538 25.90794,9.430571 c 4.76064,1.731556 10.02421,-0.722249 11.75692,-5.48289 L 545.39922,3.7712803 c 1.73271,-4.76063801 -0.72225,-10.023061 -5.48174,-11.755769 l -17.27654,-6.2889583 -11.77414,5.4897773 z"
   id="path3" />


<path
   style="fill:#afb9d2;stroke-width:1.14825"
   d="M 269.37287,30.106364 C 259.86193,55.001544 251.67428,210.71405 229.1755,202.52474 206.73412,194.35725 175.21994,24.284743 183.25423,-0.89635071 Z"
   id="path6"
   sodipodi:nodetypes="cccc" />
<g
   id="g8">
	<path
   style="fill:#2d2b29;stroke-width:1.14825"
   d="m 594.31003,-52.235696 c -0.23425,-5.372656 -3.22773,-15.332565 -20.64092,-21.669749 L 109.41724,-242.71293 c -11.49052,-4.18192 -23.95591,-3.62387 -35.100808,1.57425 -11.144907,5.19582 -19.586836,14.3864 -23.767607,25.87694 l -12.568729,34.52668 c 0,0 -0.0012,0.004 -0.0023,0.006 l -28.273368,77.68233 c -8.6612397,23.79975 3.652579,50.207172 27.454625,58.870709 L 172.46414,5.0136853 C 189.24533,89.232549 208.90119,176.83831 225.1683,263.26439 c 1.38244,7.41062 4.64614,6.79894 5.93949,-0.3448 25.84775,-142.76934 26.77655,-142.98222 35.91639,-201.788856 3.15344,-13.682543 2.99724,-12.673358 7.21268,-19.117032 l 158.11729,57.484774 c 5.16826,1.880824 10.4571,2.773024 15.66326,2.773024 15.78842,-9.7e-4 30.79258,-8.20883 39.19431,-21.907436 l 18.14463,6.603573 c 2.04963,0.74521 4.17388,1.117249 6.2924,1.117249 2.64442,0 5.27965,-0.578724 7.74724,-1.729264 4.44486,-2.072587 7.81613,-5.752723 9.49257,-10.3595 l 25.1432,-69.0809367 c 3.05778,-8.401735 -0.43174,-17.6095413 -7.84138,-22.0325953 l 29.44797,-13.731905 c 16.79315,-7.832204 18.90592,-18.013726 18.67168,-23.386381 z M 24.795905,225.06636 c -18.3719792,-520.04183 -18.3719792,-520.04183 0,0 z M 251.13767,59.363246 C 248.56255,73.620586 243.21663,110.88125 228.31892,202.6919 205.08821,87.950949 207.44267,86.814855 190.1931,11.459953 l 64.62376,22.69695 c -2.11228,16.013567 -0.66952,5.595818 -3.67919,25.206343 z M 536.76899,0.62852429 511.64187,69.701423 l -17.27541,-6.28781 23.83306,-65.4811767 4.88005,-2.27468 z m 31.10605,-46.12974229 -49.10829,22.898374 c -0.005,0.0022 -0.009,0.0046 -0.0126,0.0069 l -11.76151,5.484036 c -0.005,0.0022 -0.008,0.0034 -0.0127,0.0058 l -13.78817,6.430193 c -16.18113,7.5451423 -44.0273,8.7599893 -60.80895,2.6524543 L 166.66663,-104.56943 c -4.76638,-1.7304 -10.038,0.72915 -11.7707,5.49667 -1.73271,4.76868 0.72799,10.03799 5.49667,11.77185 L 426.10308,9.2426853 c 9.2457,3.3655167 20.64207,5.0040677 32.27153,5.0040677 12.71456,0 25.69665,-1.969246 36.43967,-5.7814317 L 473.95979,65.76293 c -5.19698,14.279622 -21.04281,21.667451 -35.32472,16.469329 L 43.43887,-61.441206 C 29.15925,-66.638179 21.771417,-82.48287 26.968391,-96.76249 l 15.717228,-43.18334 c 5.241755,8.05956 13.03722,14.54832 22.746809,18.08149 l 8.63483,3.1416 c 4.762934,1.73615 10.037988,-0.72339 11.772997,-5.49093 1.735,-4.76638 -0.723399,-10.03799 -5.490927,-11.77299 l -8.633679,-3.14161 c -14.277329,-5.19697 -21.666312,-21.03821 -16.472781,-35.31668 l 3.143903,-8.63713 v -9.8e-4 l 9.424832,-25.89415 c 2.503181,-6.87916 7.5704,-12.3873 14.268141,-15.51168 6.69773,-3.12325 14.175123,-3.46428 21.055436,-0.95879 l 464.25186,168.808626 c 5.8974,2.146076 8.07908,4.382865 8.5223,5.207307 -0.36859,0.860038 -2.34587,3.277102 -8.0343,5.930705 z"
   id="path7"
   sodipodi:nodetypes="scccccccccssccccccssccccsccccccccccccccccccccccccscccccccccccccccccccc" />
	<path
   style="fill:#2d2b29;stroke-width:1.14825"
   d="m 132.13994,-117.13586 -17.26621,-6.28552 c -4.76639,-1.7373 -10.038,0.7234 -11.77415,5.48978 -1.735,4.76639 0.72225,10.038 5.48977,11.77415 l 17.26622,6.28551 c 1.03688,0.37778 2.09785,0.55575 3.14161,0.55575 3.75248,0 7.27415,-2.31716 8.63254,-6.04667 1.73615,-4.76638 -0.72225,-10.03685 -5.48978,-11.773 z"
   id="path8" />
</g>
</svg>
