<?xml version="1.0" encoding="UTF-8" standalone="no"?>
<svg
   width="48"
   height="48"
   viewBox="0 -32 64 64"
   version="1.1"
   id="svg1"
   sodipodi:docname="traffic_cam_3.svg"
   inkscape:version="1.4.2 (f4327f4, 2025-05-13)"
   xml:space="preserve"
   xmlns:inkscape="http://www.inkscape.org/namespaces/inkscape"
   xmlns:sodipodi="http://sodipodi.sourceforge.net/DTD/sodipodi-0.dtd"
   xmlns="http://www.w3.org/2000/svg"
   xmlns:svg="http://www.w3.org/2000/svg"><defs
     id="defs1" /><sodipodi:namedview
     id="namedview1"
     pagecolor="#ffffff"
     bordercolor="#000000"
     borderopacity="0.25"
     inkscape:showpageshadow="2"
     inkscape:pageopacity="0.0"
     inkscape:pagecheckerboard="0"
     inkscape:deskcolor="#d1d1d1"
     inkscape:zoom="16.241359"
     inkscape:cx="27.737827"
     inkscape:cy="28.045683"
     inkscape:window-width="1920"
     inkscape:window-height="991"
     inkscape:window-x="-9"
     inkscape:window-y="-9"
     inkscape:window-maximized="1"
     inkscape:current-layer="svg1" /><g
     transform="translate(0,-32)"
     id="g1"><path
       style="fill:#d7deed;stroke-width:0.119889"
       d="m 6.2806867,14.549565 -3.2803921,9.01263 c -0.7217296,1.98271 0.3101518,4.1955 2.2928701,4.91723 L 46.55595,43.480485 c 1.982839,0.72173 4.195503,-0.31015 4.917232,-2.29287 l 2.952258,-8.11142 z"
       id="path1-8"
       data-siow="[{&quot;event&quot;:&quot;s4csvg_alert_fill&quot;,&quot;originator&quot;:&quot;server&quot;,&quot;actions&quot;:[{&quot;target&quot;:&quot;style fill&quot;,&quot;input&quot;:&quot;$.lastValue&quot;,&quot;thresholds&quot;:&quot;#eff2fa 0 #eff2fa 1 orange&quot;}]}]" /><path
       style="fill:#afb9d2;stroke-width:0.119889"
       d="m 51.473182,41.187495 2.705047,0.98465 c 0.497059,0.18079 1.046628,-0.0754 1.22754,-0.57247 l 2.6252,-7.21274 c 0.180912,-0.49706 -0.07541,-1.04651 -0.572348,-1.22742 l -1.803843,-0.65663 -1.229338,0.57319 z"
       id="path3-2"
       data-siow="[{&quot;event&quot;:&quot;s4csvg_alert_fill&quot;,&quot;originator&quot;:&quot;server&quot;,&quot;actions&quot;:[{&quot;target&quot;:&quot;style fill&quot;,&quot;input&quot;:&quot;$.lastValue&quot;,&quot;thresholds&quot;:&quot;#afb9d2 0 #afb9d2 1 orange&quot;}]}]" /><path
       style="fill:#afb9d2;stroke-width:0.119889"
       d="m 29.211064,37.136575 c -0.993037,2.59931 -1.84791,18.85725 -4.197007,18.0022 -2.343104,-0.85276 -5.633499,-18.61003 -4.794638,-21.23919 z"
       id="path6"
       sodipodi:nodetypes="cccc"
       data-siow="[{&quot;event&quot;:&quot;s4csvg_alert_fill&quot;,&quot;originator&quot;:&quot;server&quot;,&quot;actions&quot;:[{&quot;target&quot;:&quot;style fill&quot;,&quot;input&quot;:&quot;$.lastValue&quot;,&quot;thresholds&quot;:&quot;#afb9d2 0 #afb9d2 1 orange&quot;}]}]" /><path
       style="fill:#eff2fa;stroke-width:0.119889"
       d="m 18.159851,23.976525 27.743426,10.08048 c 1.982838,0.72161 5.169717,0.58241 7.08206,-0.30932 l 7.797677,-3.63598 c 1.912342,-0.89173 1.854676,-2.21182 -0.128042,-2.93355 L 12.181966,9.5527251 c -1.982839,-0.72173 -4.1956233,0.31015 -4.9172333,2.2929899 l -1.312061,3.60505 c -0.72173,1.98272 0.310152,4.19538 2.29287,4.91723 l 0.901563,0.32814 z"
       id="path2-8"
       data-siow="[{&quot;event&quot;:&quot;s4csvg_alert_fill&quot;,&quot;originator&quot;:&quot;server&quot;,&quot;actions&quot;:[{&quot;target&quot;:&quot;style fill&quot;,&quot;input&quot;:&quot;$.lastValue&quot;,&quot;thresholds&quot;:&quot;#eff2fa 0 #eff2fa 1 orange&quot;}]}]" /><path
       style="fill:#2d2b29;stroke-width:0.119889"
       d="m 14.882577,21.763025 -1.802765,-0.65627 c -0.497659,-0.18139 -1.048067,0.0755 -1.229339,0.57318 -0.181151,0.49766 0.07541,1.04807 0.573187,1.22934 l 1.802766,0.65627 c 0.10826,0.0394 0.219036,0.058 0.328015,0.058 0.391796,0 0.759494,-0.24194 0.901323,-0.63133 0.181272,-0.49766 -0.07541,-1.04795 -0.573187,-1.22922 z"
       id="path8" /><path
       style="fill:#2d2b29;stroke-width:0.119889"
       d="m 63.137746,28.539245 c -0.02446,-0.56096 -0.337008,-1.60087 -2.155118,-2.26254 L 12.5101,8.6515251 c -1.199725,-0.43664 -2.501236,-0.37837 -3.6648753,0.16437 -1.163639,0.54249 -2.045061,1.5020799 -2.481575,2.7018099 l -1.312301,3.60493 c 0,0 -1.25e-4,4.1e-4 -2.4e-4,6.2e-4 l -2.9520215,8.11081 c -0.9043199,2.48493 0.3813657,5.24213 2.8665365,6.14669 l 14.1272013,5.1359 c 1.752124,8.79329 3.804392,17.9402 5.502841,26.96395 0.14434,0.77374 0.485103,0.70988 0.620142,-0.036 2.698763,-14.90654 2.795739,-14.92877 3.750029,-21.06877 0.329251,-1.4286 0.312942,-1.32323 0.753076,-1.99601 l 16.509023,6.00198 c 0.539618,0.19638 1.091825,0.28954 1.6354,0.28954 1.648469,-1.1e-4 3.215053,-0.85709 4.092277,-2.28736 l 1.894481,0.68948 c 0.214002,0.0778 0.435795,0.11665 0.656989,0.11665 0.276104,0 0.551248,-0.0604 0.808889,-0.18055 0.464088,-0.2164 0.816082,-0.60064 0.991119,-1.08164 l 2.625201,-7.21274 c 0.319263,-0.87722 -0.04508,-1.83861 -0.818718,-2.30042 l 3.074662,-1.43375 c 1.753372,-0.81776 1.973967,-1.88081 1.94951,-2.44177 z m -59.462958,28.9531 c -1.918218,-54.2975499 -1.918218,-54.2975499 0,0 z m 23.632339,-17.30105 c -0.268868,1.4886 -0.827036,5.37899 -2.382505,14.96494 -2.425518,-11.9801 -2.179689,-12.09872 -3.980716,-19.96653 l 6.747365,2.36979 c -0.220543,1.67198 -0.0699,0.58426 -0.384144,2.6318 z m 29.82276,-6.1325 -2.623522,7.2119 -1.803725,-0.65651 2.488409,-6.83688 0.509526,-0.2375 z m 3.247782,-4.8164 -5.127396,2.39082 c -5.22e-4,2.3e-4 -9.39e-4,4.8e-4 -0.0013,7.2e-4 l -1.228019,0.57259 c -5.22e-4,2.3e-4 -8.35e-4,3.5e-4 -0.0013,6e-4 l -1.439623,0.67138 c -1.689471,0.78779 -4.596889,0.91463 -6.349061,0.27694 L 18.487549,23.075085 c -0.497658,-0.18067 -1.048068,0.0761 -1.228979,0.57391 -0.180912,0.49789 0.07601,1.04806 0.573907,1.22909 l 27.742826,10.08012 c 0.965343,0.35139 2.155238,0.52247 3.369469,0.52247 1.327527,0 2.682987,-0.20561 3.804666,-0.60364 l -2.177417,5.98245 c -0.542617,1.49093 -2.19708,2.26229 -3.688254,1.71956 L 5.6213407,27.578105 c -1.490935,-0.54262 -2.2622985,-2.19696 -1.7196825,-3.6879 l 1.6410355,-4.50877 c 0.547291,0.8415 1.361216,1.51899 2.374994,1.88789 l 0.901562,0.32801 c 0.497298,0.18127 1.0480665,-0.0755 1.2292193,-0.57331 0.181151,-0.49765 -0.07553,-1.04806 -0.5733083,-1.22921 l -0.901442,-0.32802 c -1.490696,-0.54262 -2.262179,-2.1966 -1.719923,-3.68741 l 0.328255,-0.90181 v -10e-5 l 0.984046,-2.70361 c 0.261357,-0.71825 0.790426,-1.29335 1.489737,-1.61957 0.6993093,-0.3261 1.4800243,-0.36171 2.1983973,-0.10011 l 48.472527,17.62531 c 0.615747,0.22407 0.843536,0.45761 0.889813,0.54369 -0.03848,0.0898 -0.244932,0.34216 -0.838861,0.61923 z"
       id="path7"
       sodipodi:nodetypes="scccccccccssccccccssccccsccccccccccccccccccccccccscccccccccccccccccccc" /><!-- Cerchio bianco centrale --><!-- Triangolo di pericolo --><!-- Punto esclamativo cartoon - stanghetta a goccia --><!-- Pin con curva superiore sferica --><!-- Pallino --></g></svg>
