<svg width="22" height="21" viewBox="0 0 22 21" fill="none" xmlns="http://www.w3.org/2000/svg">
<path d="M1 21C0.716667 21 0.479167 20.9042 0.2875 20.7125C0.0958333 20.5208 0 20.2833 0 20V12L2.125 6.925C2.24167 6.64167 2.425 6.41667 2.675 6.25C2.925 6.08333 3.2 6 3.5 6H12.5C12.8 6 13.075 6.08333 13.325 6.25C13.575 6.41667 13.7583 6.64167 13.875 6.925L16 12V20C16 20.2833 15.9042 20.5208 15.7125 20.7125C15.5208 20.9042 15.2833 21 15 21H14C13.7167 21 13.4792 20.9042 13.2875 20.7125C13.0958 20.5208 13 20.2833 13 20V19H3V20C3 20.2833 2.90417 20.5208 2.7125 20.7125C2.52083 20.9042 2.28333 21 2 21H1ZM2.8 10H13.175L12.35 8H3.65L2.8 10ZM2 17H14V12H2V17ZM4.5 16C4.91667 16 5.27083 15.8542 5.5625 15.5625C5.85417 15.2708 6 14.9167 6 14.5C6 14.0833 5.85417 13.7292 5.5625 13.4375C5.27083 13.1458 4.91667 13 4.5 13C4.08333 13 3.72917 13.1458 3.4375 13.4375C3.14583 13.7292 3 14.0833 3 14.5C3 14.9167 3.14583 15.2708 3.4375 15.5625C3.72917 15.8542 4.08333 16 4.5 16ZM11.5 16C11.9167 16 12.2708 15.8542 12.5625 15.5625C12.8542 15.2708 13 14.9167 13 14.5C13 14.0833 12.8542 13.7292 12.5625 13.4375C12.2708 13.1458 11.9167 13 11.5 13C11.0833 13 10.7292 13.1458 10.4375 13.4375C10.1458 13.7292 10 14.0833 10 14.5C10 14.9167 10.1458 15.2708 10.4375 15.5625C10.7292 15.8542 11.0833 16 11.5 16ZM17 18V9.4L15.175 5H4.675L5.125 3.925C5.24167 3.64167 5.425 3.41667 5.675 3.25C5.925 3.08333 6.2 3 6.5 3H15.5C15.8 3 16.075 3.08333 16.325 3.25C16.575 3.41667 16.7583 3.64167 16.875 3.925L19 9V17C19 17.2833 18.9042 17.5208 18.7125 17.7125C18.5208 17.9042 18.2833 18 18 18H17ZM20 15V6.4L18.175 2H7.675L8.125 0.925C8.24167 0.641667 8.425 0.416667 8.675 0.25C8.925 0.0833333 9.2 0 9.5 0H18.5C18.8 0 19.075 0.0833333 19.325 0.25C19.575 0.416667 19.7583 0.641667 19.875 0.925L22 6V14C22 14.2833 21.9042 14.5208 21.7125 14.7125C21.5208 14.9042 21.2833 15 21 15H20Z" fill="white"/>
</svg>
