<svg width="22" height="28" viewBox="0 0 22 28" fill="none" xmlns="http://www.w3.org/2000/svg">
<path d="M11 14.7527C9.67633 14.7527 8.5597 14.2996 7.65011 13.3933C6.74051 12.4871 6.28571 11.3746 6.28571 10.0559C6.28571 8.7371 6.74051 7.62461 7.65011 6.71839C8.5597 5.81216 9.67633 5.35905 11 5.35905C12.3237 5.35905 13.4403 5.81216 14.3499 6.71839C15.2595 7.62461 15.7143 8.7371 15.7143 10.0559C15.7143 11.3746 15.2595 12.4871 14.3499 13.3933C13.4403 14.2996 12.3237 14.7527 11 14.7527ZM11 13.1871C11.8824 13.1871 12.6268 12.885 13.2334 12.281C13.8397 11.6766 14.1429 10.9349 14.1429 10.0559C14.1429 9.17677 13.8397 8.43507 13.2334 7.83075C12.6268 7.22669 11.8824 6.92466 11 6.92466C10.1176 6.92466 9.37318 7.22669 8.76661 7.83075C8.1603 8.43507 7.85714 9.17677 7.85714 10.0559C7.85714 10.9349 8.1603 11.6766 8.76661 12.281C9.37318 12.885 10.1176 13.1871 11 13.1871ZM11 28C7.843 27.0666 5.22042 25.1613 3.13225 22.284C1.04408 19.4067 0 16.1656 0 12.5608V4.09444L11 0L22 4.09444V12.5608C22 16.1656 20.9559 19.4067 18.8678 22.284C16.7796 25.1613 14.157 27.0666 11 28ZM11 1.67089L1.57143 5.16335V12.5608C1.57143 14.1303 1.80308 15.6407 2.26639 17.0921C2.7297 18.5431 3.3825 19.8859 4.22479 21.1204C5.24412 20.5925 6.31086 20.182 7.425 19.889C8.53914 19.596 9.73081 19.4495 11 19.4495C12.2692 19.4495 13.4609 19.596 14.575 19.889C15.6891 20.182 16.7559 20.5925 17.7752 21.1204C18.6175 19.8859 19.2703 18.5431 19.7336 17.0921C20.1969 15.6407 20.4286 14.1303 20.4286 12.5608V5.16335L11 1.67089ZM11 21.0151C9.91624 21.0151 8.88368 21.1295 7.90232 21.3583C6.92123 21.5872 6.00456 21.9144 5.15232 22.34C5.95218 23.2832 6.84265 24.0971 7.82375 24.7815C8.80511 25.4659 9.86386 25.9848 11 26.3381C12.1361 25.9848 13.1898 25.4659 14.1609 24.7815C15.1321 24.0971 16.0176 23.2832 16.8174 22.34C15.9652 21.9144 15.0535 21.5872 14.0824 21.3583C13.1112 21.1295 12.0838 21.0151 11 21.0151Z" fill="white"/>
</svg>
