<?xml version="1.0" encoding="UTF-8" standalone="no"?>
<svg
   width="17"
   height="16"
   viewBox="0 0 17 16"
   fill="none"
   version="1.1"
   id="svg1"
   sodipodi:docname="videocamera-2.svg"
   inkscape:version="1.4 (86a8ad7, 2024-10-11)"
   xmlns:inkscape="http://www.inkscape.org/namespaces/inkscape"
   xmlns:sodipodi="http://sodipodi.sourceforge.net/DTD/sodipodi-0.dtd"
   xmlns="http://www.w3.org/2000/svg"
   xmlns:svg="http://www.w3.org/2000/svg">
  <defs
     id="defs1" />
  <sodipodi:namedview
     id="namedview1"
     pagecolor="#ffffff"
     bordercolor="#000000"
     borderopacity="0.25"
     inkscape:showpageshadow="2"
     inkscape:pageopacity="0.0"
     inkscape:pagecheckerboard="0"
     inkscape:deskcolor="#d1d1d1"
     inkscape:zoom="25.21875"
     inkscape:cx="2.2998761"
     inkscape:cy="6.2057001"
     inkscape:window-width="1920"
     inkscape:window-height="1009"
     inkscape:window-x="-8"
     inkscape:window-y="-8"
     inkscape:window-maximized="1"
     inkscape:current-layer="svg1" />
  <path
     d="m 12.589588,10.325384 -1.743997,-1.0022726 2.806432,-2.0847778 1.723951,1.002297 z M 8.8009047,7.8798037 10.885683,6.2961744 5.3530029,3.1088698 4.1502465,5.1936476 Z M 1.7447336,14.334572 V 12.730897 H 5.7539217 V 7.9599875 L 3.3484089,6.5768175 C 2.9608567,6.3496329 2.7102824,6.0255542 2.5966861,5.6045894 2.4830922,5.1836247 2.5398895,4.7793702 2.7670766,4.39181 L 3.969833,2.3070322 C 4.1970177,1.9194792 4.5210964,1.6689049 4.9420611,1.5553115 5.3630259,1.4417178 5.7672884,1.4985146 6.1548405,1.7257023 L 13.792344,6.1358069 8.9011344,9.784144 7.357597,8.9021467 v 3.8287503 c 0,0.441011 -0.1570239,0.818596 -0.4710796,1.132596 -0.3140558,0.314079 -0.691585,0.471079 -1.1325957,0.471079 z"
     fill="#ff1616"
     id="path1"
     style="stroke-width:0.801838" />
</svg>
