<?xml version="1.0" encoding="UTF-8" standalone="no"?>
<svg
   width="17"
   height="16"
   viewBox="0 0 17 16"
   fill="none"
   version="1.1"
   id="svg1"
   sodipodi:docname="videocamera-1.svg"
   inkscape:version="1.4 (86a8ad7, 2024-10-11)"
   xmlns:inkscape="http://www.inkscape.org/namespaces/inkscape"
   xmlns:sodipodi="http://sodipodi.sourceforge.net/DTD/sodipodi-0.dtd"
   xmlns="http://www.w3.org/2000/svg"
   xmlns:svg="http://www.w3.org/2000/svg">
  <defs
     id="defs1" />
  <sodipodi:namedview
     id="namedview1"
     pagecolor="#ffffff"
     bordercolor="#000000"
     borderopacity="0.25"
     inkscape:showpageshadow="2"
     inkscape:pageopacity="0.0"
     inkscape:pagecheckerboard="0"
     inkscape:deskcolor="#d1d1d1"
     inkscape:zoom="22.96875"
     inkscape:cx="2.0897959"
     inkscape:cy="4.7673469"
     inkscape:window-width="1920"
     inkscape:window-height="1009"
     inkscape:window-x="-8"
     inkscape:window-y="-8"
     inkscape:window-maximized="1"
     inkscape:current-layer="svg1" />
  <path
     d="m 12.633059,10.435065 -1.779514,-1.0226842 2.863586,-2.1272349 1.75906,1.022709 z M 8.7672188,7.9396797 10.894454,6.3237993 5.2490996,3.0715844 4.0218487,5.1988193 Z M 1.5673469,14.525902 V 12.889567 H 5.6581832 V 8.0214964 L 3.2036814,6.6101579 C 2.8082366,6.3783465 2.5525594,6.0476679 2.4366497,5.6181301 2.3207424,5.1885922 2.3786964,4.776105 2.6105102,4.3806521 L 3.8377611,2.2534172 C 4.0695724,1.8579716 4.4002511,1.6022943 4.8297889,1.4863875 5.2593267,1.3704804 5.6718221,1.4284339 6.0672669,1.6602483 L 13.86031,6.1601659 8.8694898,9.8828024 7.2945178,8.9828429 v 3.9067241 c 0,0.449992 -0.1602217,0.835267 -0.4806733,1.155662 -0.3204516,0.320476 -0.7056693,0.480673 -1.1556613,0.480673 z"
     fill="white"
     id="path1"
     style="stroke-width:0.818167" />
</svg>
