<?xml version="1.0" encoding="UTF-8" standalone="no"?>
<svg
   width="17"
   height="16"
   viewBox="0 0 17 16"
   fill="none"
   version="1.1"
   id="svg1"
   sodipodi:docname="videocamera-1.svg"
   inkscape:version="1.4 (86a8ad7, 2024-10-11)"
   xmlns:inkscape="http://www.inkscape.org/namespaces/inkscape"
   xmlns:sodipodi="http://sodipodi.sourceforge.net/DTD/sodipodi-0.dtd"
   xmlns="http://www.w3.org/2000/svg"
   xmlns:svg="http://www.w3.org/2000/svg">
  <defs
     id="defs1" />
  <sodipodi:namedview
     id="namedview1"
     pagecolor="#ffffff"
     bordercolor="#000000"
     borderopacity="0.25"
     inkscape:showpageshadow="2"
     inkscape:pageopacity="0.0"
     inkscape:pagecheckerboard="0"
     inkscape:deskcolor="#d1d1d1"
     inkscape:zoom="45.9375"
     inkscape:cx="8.4897959"
     inkscape:cy="8"
     inkscape:window-width="1920"
     inkscape:window-height="974"
     inkscape:window-x="-11"
     inkscape:window-y="2134"
     inkscape:window-maximized="1"
     inkscape:current-layer="svg1" />
  <path
     d="M13.525 11L11.35 9.75003L14.85 7.15003L17 8.40003L13.525 11ZM8.8 7.95003L11.4 5.97503L4.5 2.00003L3 4.60003L8.8 7.95003ZM0 16V14H5V8.05003L2 6.32503C1.51667 6.0417 1.20417 5.63753 1.0625 5.11253C0.920833 4.58753 0.991667 4.08337 1.275 3.60003L2.775 1.00003C3.05833 0.516699 3.4625 0.204199 3.9875 0.0625326C4.5125 -0.0791341 5.01667 -0.00830078 5.5 0.275033L15.025 5.77503L8.925 10.325L7 9.22503V14C7 14.55 6.80417 15.0209 6.4125 15.4125C6.02083 15.8042 5.55 16 5 16H0Z"
     fill="white"
     id="path1" />
</svg>
